<svg xmlns="http://www.w3.org/2000/svg" xmlns:xlink="http://www.w3.org/1999/xlink" version="1.1" x="0px" y="0px" viewBox="0 0 64 64" style="enable-background:new 0 0 64 64;" xml:space="preserve"><path d="M58,25c-3.309,0-6,2.691-6,6H36.941c-0.332-2.987-2.128-5.538-4.655-6.913l6.62-14.563C39.544,9.822,40.25,10,41,10  c2.757,0,5-2.243,5-5s-2.243-5-5-5s-5,2.243-5,5c0,1.267,0.489,2.412,1.268,3.294l-6.84,15.048C29.654,23.125,28.842,23,28,23  c-2.27,0-4.34,0.851-5.925,2.243L10.703,14.714C11.513,13.691,12,12.403,12,11c0-3.309-2.691-6-6-6s-6,2.691-6,6s2.691,6,6,6  c1.182,0,2.282-0.348,3.212-0.941l11.515,10.662C19.646,28.206,19,30.027,19,32c0,2.948,1.431,5.562,3.629,7.205l-7.548,10.656  C14.179,49.318,13.127,49,12,49c-3.309,0-6,2.691-6,6s2.691,6,6,6s6-2.691,6-6c0-1.458-0.523-2.795-1.391-3.835l7.75-10.941  C25.474,40.719,26.704,41,28,41c1.657,0,3.205-0.458,4.54-1.242l13.106,18.077C45.241,58.461,45,59.201,45,60c0,2.206,1.794,4,4,4  s4-1.794,4-4s-1.794-4-4-4c-0.677,0-1.305,0.185-1.865,0.483L34.141,38.561c1.525-1.428,2.557-3.375,2.799-5.561H52.35  c0.826,2.327,3.043,4,5.65,4c3.309,0,6-2.691,6-6S61.309,25,58,25z M41,2c1.654,0,3,1.346,3,3s-1.346,3-3,3s-3-1.346-3-3  S39.346,2,41,2z M12,59c-2.206,0-4-1.794-4-4s1.794-4,4-4s4,1.794,4,4S14.206,59,12,59z M51,60c0,1.103-0.897,2-2,2s-2-0.897-2-2  s0.897-2,2-2S51,58.897,51,60z M2,11c0-2.206,1.794-4,4-4s4,1.794,4,4s-1.794,4-4,4S2,13.206,2,11z M28,39c-3.859,0-7-3.14-7-7  s3.141-7,7-7s7,3.14,7,7S31.859,39,28,39z M58,35c-2.206,0-4-1.794-4-4s1.794-4,4-4s4,1.794,4,4S60.206,35,58,35z"></path><rect y="35" width="4" height="2"></rect><rect x="8" y="35" width="4" height="2"></rect><rect x="5" y="30" width="2" height="4"></rect><rect x="5" y="38" width="2" height="4"></rect><rect x="52" y="8" width="4" height="2"></rect><rect x="60" y="8" width="4" height="2"></rect><rect x="57" y="3" width="2" height="4"></rect><rect x="57" y="11" width="2" height="4"></rect><rect x="29" y="34" width="2" height="2"></rect><rect x="25" y="34" width="2" height="2"></rect><rect x="27" y="30" width="2" height="2"></rect><rect x="31" y="30" width="2" height="2"></rect></svg>