<svg xmlns="http://www.w3.org/2000/svg" xmlns:xlink="http://www.w3.org/1999/xlink" version="1.1" x="0px" y="0px" viewBox="0 0 100 100" enable-background="new 0 0 100 100" xml:space="preserve"><g><path d="M60.74,21.558l10.049,10.049c3.328-7.381,4.532-13.059,4.62-13.488l0.304-1.485l-1.485,0.304   C73.799,17.026,68.122,18.23,60.74,21.558z"></path><path d="M48.951,62.53l-1.019-2.296c0.772-0.628,1.547-1.278,2.323-1.945L34.058,42.093c-0.671,0.78-1.324,1.56-1.956,2.336   l-2.252-0.999c-2.482-1.102-5.439-0.552-7.359,1.368l-4.368,4.368c-1.771,1.771-2.388,4.351-1.609,6.732   c0.331,1.014,0.888,1.907,1.609,2.628c0.973,0.973,2.246,1.633,3.668,1.852l1.252,0.193l3.66,3.66L25.6,65.333   c-0.391,0.391-0.391,1.023,0,1.414c0.391,0.391,1.024,0.391,1.414,0l1.102-1.102l3.693,3.693l0.193,1.252   c0.22,1.422,0.879,2.694,1.852,3.668c0.721,0.721,1.615,1.278,2.628,1.609c2.381,0.779,4.96,0.162,6.732-1.609l4.368-4.368   C49.503,67.969,50.053,65.012,48.951,62.53z"></path><path d="M69.475,33.121L59.176,22.822c-0.122-0.122-0.208-0.262-0.269-0.408c-5.909,2.849-12.665,7.017-18.634,12.985   c-1.715,1.715-3.342,3.452-4.889,5.19l16.375,16.375c1.738-1.547,3.475-3.174,5.19-4.889c5.979-5.979,10.152-12.749,13.001-18.667   C69.779,33.347,69.615,33.261,69.475,33.121z M61.124,41.193c-2.749,2.749-7.221,2.749-9.97,0c-2.749-2.749-2.749-7.221,0-9.97   c2.749-2.749,7.221-2.749,9.97,0S63.873,38.444,61.124,41.193z"></path><path d="M52.569,32.637c-1.969,1.969-1.969,5.173,0,7.141s5.172,1.969,7.141,0s1.969-5.173,0-7.141   C57.741,30.668,54.538,30.668,52.569,32.637z M59.179,39.248c-1.676,1.676-4.404,1.676-6.08,0c-1.677-1.677-1.677-4.404,0-6.081   c1.676-1.676,4.404-1.676,6.081,0C60.855,34.844,60.855,37.571,59.179,39.248z"></path><path d="M21.4,66.402c-1.073,0.095-2.118,0.955-3.671,2.508c-1.797,1.798-3.526,4.995-5.137,9.502l-0.711,1.989l1.989-0.711   c4.508-1.611,7.705-3.34,9.502-5.137c1.553-1.553,2.413-2.598,2.508-3.671c0.103-1.157-0.653-1.913-1.61-2.87   C23.313,67.055,22.546,66.299,21.4,66.402z"></path><polygon points="70.609,51.221 69.047,50.4 69.345,52.139 68.081,53.371 69.828,53.625 70.609,55.207 71.39,53.625 73.136,53.371    71.872,52.139 72.171,50.4  "></polygon><polygon points="31.287,83.629 30.562,82.159 29.836,83.629 28.215,83.864 29.388,85.008 29.111,86.623 30.562,85.861    32.012,86.623 31.735,85.008 32.908,83.864  "></polygon><polygon points="81.609,69.351 79.926,70.415 78.095,69.632 78.587,71.562 77.276,73.061 79.264,73.189 80.285,74.899    81.021,73.049 82.962,72.606 81.43,71.334  "></polygon><polygon points="14.461,16.688 15.545,16.353 16.436,17.057 16.453,15.921 17.397,15.291 16.323,14.925 16.015,13.832    15.335,14.741 14.2,14.695 14.854,15.624  "></polygon><polygon points="86.161,15.594 85.36,16.87 83.855,16.933 84.821,18.089 84.416,19.54 85.814,18.978 87.068,19.812 86.966,18.309    88.146,17.373 86.686,17.006  "></polygon><polygon points="35.864,12.251 34.735,9.884 33.543,12.22 30.944,12.562 32.797,14.417 32.319,16.995 34.656,15.806 36.96,17.057    36.551,14.467 38.453,12.662  "></polygon><polygon points="13.475,35.137 14.2,36.607 14.925,35.137 16.547,34.902 15.374,33.758 15.651,32.143 14.2,32.905 12.75,32.143    13.027,33.758 11.854,34.902  "></polygon><polygon points="85.92,42.718 86.765,42.038 85.711,41.78 85.325,40.766 84.755,41.689 83.671,41.743 84.373,42.571 84.089,43.618    85.093,43.206 86.001,43.8  "></polygon><circle cx="62.189" cy="75.833" r="0.934"></circle><circle cx="49.887" cy="79.887" r="1.017"></circle><circle cx="61.39" cy="57.234" r="1.078"></circle><circle cx="33.044" cy="30.034" r="1.019"></circle><circle cx="48.123" cy="14.579" r="0.747"></circle><circle cx="86.231" cy="56.221" r="1.013"></circle><circle cx="15.398" cy="87.024" r="0.401"></circle><circle cx="87.696" cy="87.475" r="0.451"></circle><path d="M74.828,78.81c-0.343-0.414-1.708,0.098-3.535,1.22c-0.881-0.714-1.989-1.16-3.212-1.16c-2.832,0-5.129,2.296-5.129,5.129   c0,0.852,0.228,1.643,0.595,2.35c-1.673,1.764-2.583,3.177-2.213,3.624c0.378,0.457,2.003-0.214,4.12-1.59   c0.77,0.463,1.662,0.745,2.626,0.745c2.832,0,5.129-2.296,5.129-5.129c0-0.646-0.133-1.258-0.35-1.827   C74.374,80.531,75.179,79.234,74.828,78.81z"></path></g></svg>