<svg xmlns="http://www.w3.org/2000/svg" xmlns:xlink="http://www.w3.org/1999/xlink" version="1.1" x="0px" y="0px" viewBox="0 0 100 100" style="enable-background:new 0 0 100 100;" xml:space="preserve"><path d="M6.5,45c0-0.8-0.7-1.5-1.5-1.5S3.5,44.2,3.5,45v3.5h3V45z"></path><path d="M3.5,55c0,0.8,0.7,1.5,1.5,1.5s1.5-0.7,1.5-1.5v-3.5h-3V55z"></path><path d="M12.5,43c0-0.8-0.7-1.5-1.5-1.5S9.5,42.2,9.5,43v5.5h3V43z"></path><path d="M9.5,57c0,0.8,0.7,1.5,1.5,1.5s1.5-0.7,1.5-1.5v-5.5h-3V57z"></path><path d="M15.5,70c0,0.8,0.7,1.5,1.5,1.5s1.5-0.7,1.5-1.5V51.5h-3V70z"></path><path d="M18.5,30c0-0.8-0.7-1.5-1.5-1.5s-1.5,0.7-1.5,1.5v18.5h3V30z"></path><path d="M27.5,83c0,0.8,0.7,1.5,1.5,1.5s1.5-0.7,1.5-1.5V51.5h-3V83z"></path><path d="M30.5,17c0-0.8-0.7-1.5-1.5-1.5s-1.5,0.7-1.5,1.5v31.5h3V17z"></path><path d="M21.5,90c0,0.8,0.7,1.5,1.5,1.5s1.5-0.7,1.5-1.5V51.5h-3V90z"></path><path d="M24.5,10c0-0.8-0.7-1.5-1.5-1.5s-1.5,0.7-1.5,1.5v38.5h3V10z"></path><path d="M33.5,73c0,0.8,0.7,1.5,1.5,1.5s1.5-0.7,1.5-1.5V51.5h-3V73z"></path><path d="M36.5,27c0-0.8-0.7-1.5-1.5-1.5s-1.5,0.7-1.5,1.5v21.5h3V27z"></path><path d="M42.5,35c0-0.8-0.7-1.5-1.5-1.5s-1.5,0.7-1.5,1.5v13.5h3V35z"></path><path d="M39.5,65c0,0.8,0.7,1.5,1.5,1.5s1.5-0.7,1.5-1.5V51.5h-3V65z"></path><path d="M45.5,60c0,0.8,0.7,1.5,1.5,1.5s1.5-0.7,1.5-1.5v-8.5h-3V60z"></path><path d="M48.5,40c0-0.8-0.7-1.5-1.5-1.5s-1.5,0.7-1.5,1.5v8.5h3V40z"></path><path d="M54.5,35c0-0.8-0.7-1.5-1.5-1.5s-1.5,0.7-1.5,1.5v13.5h3V35z"></path><path d="M51.5,65c0,0.8,0.7,1.5,1.5,1.5s1.5-0.7,1.5-1.5V51.5h-3V65z"></path><path d="M60.5,43c0-0.8-0.7-1.5-1.5-1.5s-1.5,0.7-1.5,1.5v5.5h3V43z"></path><path d="M57.5,57c0,0.8,0.7,1.5,1.5,1.5s1.5-0.7,1.5-1.5v-5.5h-3V57z"></path><path d="M63.5,55c0,0.8,0.7,1.5,1.5,1.5s1.5-0.7,1.5-1.5v-3.5h-3V55z"></path><path d="M66.5,45c0-0.8-0.7-1.5-1.5-1.5s-1.5,0.7-1.5,1.5v3.5h3V45z"></path><path d="M69.5,57c0,0.8,0.7,1.5,1.5,1.5s1.5-0.7,1.5-1.5v-5.5h-3V57z"></path><path d="M72.5,43c0-0.8-0.7-1.5-1.5-1.5s-1.5,0.7-1.5,1.5v5.5h3V43z"></path><path d="M75.5,55c0,0.8,0.7,1.5,1.5,1.5s1.5-0.7,1.5-1.5v-3.5h-3V55z"></path><path d="M78.5,45c0-0.8-0.7-1.5-1.5-1.5s-1.5,0.7-1.5,1.5v3.5h3V45z"></path><path d="M90.5,45c0-0.8-0.7-1.5-1.5-1.5s-1.5,0.7-1.5,1.5v3.5h3V45z"></path><path d="M87.5,55c0,0.8,0.7,1.5,1.5,1.5s1.5-0.7,1.5-1.5v-3.5h-3V55z"></path><path d="M81.5,56c0,0.8,0.7,1.5,1.5,1.5s1.5-0.7,1.5-1.5v-4.5h-3V56z"></path><path d="M84.5,44c0-0.8-0.7-1.5-1.5-1.5s-1.5,0.7-1.5,1.5v4.5h3V44z"></path><path d="M93.5,55c0,0.8,0.7,1.5,1.5,1.5s1.5-0.7,1.5-1.5v-3.5h-3V55z"></path><path d="M96.5,45c0-0.8-0.7-1.5-1.5-1.5s-1.5,0.7-1.5,1.5v3.5h3V45z"></path></svg>