<svg xmlns:dc="http://purl.org/dc/elements/1.1/" xmlns:cc="http://creativecommons.org/ns#" xmlns:rdf="http://www.w3.org/1999/02/22-rdf-syntax-ns#" xmlns:svg="http://www.w3.org/2000/svg" xmlns="http://www.w3.org/2000/svg" xmlns:sodipodi="http://sodipodi.sourceforge.net/DTD/sodipodi-0.dtd" xmlns:inkscape="http://www.inkscape.org/namespaces/inkscape" version="1.1" x="0px" y="0px" viewBox="0 0 100 100"><g transform="translate(0,-952.36218)"><path style="" d="M 33.5625 34.375 C 33.158905 34.375 32.8125 34.690155 32.8125 35.09375 C 32.8125 35.497345 33.158905 35.84375 33.5625 35.84375 C 33.966095 35.84375 34.28125 35.497345 34.28125 35.09375 C 34.28125 34.690155 33.966095 34.375 33.5625 34.375 z M 35.6875 34.375 C 35.283905 34.375 34.96875 34.690155 34.96875 35.09375 C 34.96875 35.497345 35.283905 35.84375 35.6875 35.84375 C 36.091095 35.84375 36.40625 35.497345 36.40625 35.09375 C 36.40625 34.690155 36.091095 34.375 35.6875 34.375 z M 37.8125 34.375 C 37.408905 34.375 37.09375 34.690155 37.09375 35.09375 C 37.09375 35.497345 37.408905 35.84375 37.8125 35.84375 C 38.216095 35.84375 38.53125 35.497345 38.53125 35.09375 C 38.53125 34.690155 38.216095 34.375 37.8125 34.375 z M 39.9375 34.375 C 39.533905 34.375 39.21875 34.690155 39.21875 35.09375 C 39.21875 35.497345 39.533905 35.84375 39.9375 35.84375 C 40.341095 35.84375 40.65625 35.497345 40.65625 35.09375 C 40.65625 34.690155 40.341095 34.375 39.9375 34.375 z M 42.0625 34.375 C 41.658905 34.375 41.34375 34.690155 41.34375 35.09375 C 41.34375 35.497345 41.658905 35.84375 42.0625 35.84375 C 42.466095 35.84375 42.78125 35.497345 42.78125 35.09375 C 42.78125 34.690155 42.466095 34.375 42.0625 34.375 z M 44.1875 34.375 C 43.783905 34.375 43.46875 34.690155 43.46875 35.09375 C 43.46875 35.497345 43.783905 35.84375 44.1875 35.84375 C 44.591095 35.84375 44.90625 35.497345 44.90625 35.09375 C 44.90625 34.690155 44.591095 34.375 44.1875 34.375 z M 67.5625 34.375 C 67.158905 34.375 66.84375 34.690155 66.84375 35.09375 C 66.84375 35.497345 67.158905 35.84375 67.5625 35.84375 C 67.966095 35.84375 68.3125 35.497345 68.3125 35.09375 C 68.3125 34.690155 67.966095 34.375 67.5625 34.375 z M 69.71875 34.375 C 69.315155 34.375 68.96875 34.690155 68.96875 35.09375 C 68.96875 35.497345 69.315155 35.84375 69.71875 35.84375 C 70.122345 35.84375 70.4375 35.497345 70.4375 35.09375 C 70.4375 34.690155 70.122345 34.375 69.71875 34.375 z M 71.84375 34.375 C 71.440155 34.375 71.09375 34.690155 71.09375 35.09375 C 71.09375 35.497345 71.440155 35.84375 71.84375 35.84375 C 72.247345 35.84375 72.5625 35.497345 72.5625 35.09375 C 72.5625 34.690155 72.247345 34.375 71.84375 34.375 z M 73.96875 34.375 C 73.565155 34.375 73.21875 34.690155 73.21875 35.09375 C 73.21875 35.497345 73.565155 35.84375 73.96875 35.84375 C 74.372345 35.84375 74.6875 35.497345 74.6875 35.09375 C 74.6875 34.690155 74.372345 34.375 73.96875 34.375 z M 76.09375 34.375 C 75.690155 34.375 75.34375 34.690155 75.34375 35.09375 C 75.34375 35.497345 75.690155 35.84375 76.09375 35.84375 C 76.497345 35.84375 76.8125 35.497345 76.8125 35.09375 C 76.8125 34.690155 76.497345 34.375 76.09375 34.375 z M 78.21875 34.375 C 77.815155 34.375 77.46875 34.690155 77.46875 35.09375 C 77.46875 35.497345 77.815155 35.84375 78.21875 35.84375 C 78.622345 35.84375 78.9375 35.497345 78.9375 35.09375 C 78.9375 34.690155 78.622345 34.375 78.21875 34.375 z M 14.4375 36.5 C 14.033905 36.5 13.6875 36.815155 13.6875 37.21875 C 13.6875 37.622345 14.033905 37.9375 14.4375 37.9375 C 14.841095 37.9375 15.15625 37.622345 15.15625 37.21875 C 15.15625 36.815155 14.841095 36.5 14.4375 36.5 z M 16.5625 36.5 C 16.158905 36.5 15.8125 36.815155 15.8125 37.21875 C 15.8125 37.622345 16.158905 37.9375 16.5625 37.9375 C 16.966095 37.9375 17.28125 37.622345 17.28125 37.21875 C 17.28125 36.815155 16.966095 36.5 16.5625 36.5 z M 18.6875 36.5 C 18.283905 36.5 17.9375 36.815155 17.9375 37.21875 C 17.9375 37.622345 18.283905 37.9375 18.6875 37.9375 C 19.091095 37.9375 19.40625 37.622345 19.40625 37.21875 C 19.40625 36.815155 19.091095 36.5 18.6875 36.5 z M 20.8125 36.5 C 20.408905 36.5 20.0625 36.815155 20.0625 37.21875 C 20.0625 37.622345 20.408905 37.9375 20.8125 37.9375 C 21.216095 37.9375 21.53125 37.622345 21.53125 37.21875 C 21.53125 36.815155 21.216095 36.5 20.8125 36.5 z M 22.9375 36.5 C 22.533905 36.5 22.1875 36.815155 22.1875 37.21875 C 22.1875 37.622345 22.533905 37.9375 22.9375 37.9375 C 23.341095 37.9375 23.65625 37.622345 23.65625 37.21875 C 23.65625 36.815155 23.341095 36.5 22.9375 36.5 z M 25.0625 36.5 C 24.658905 36.5 24.3125 36.815155 24.3125 37.21875 C 24.3125 37.622345 24.658905 37.9375 25.0625 37.9375 C 25.466095 37.9375 25.78125 37.622345 25.78125 37.21875 C 25.78125 36.815155 25.466095 36.5 25.0625 36.5 z M 27.1875 36.5 C 26.783905 36.5 26.4375 36.815155 26.4375 37.21875 C 26.4375 37.622345 26.783905 37.9375 27.1875 37.9375 C 27.591095 37.9375 27.90625 37.622345 27.90625 37.21875 C 27.90625 36.815155 27.591095 36.5 27.1875 36.5 z M 29.3125 36.5 C 28.908905 36.5 28.5625 36.815155 28.5625 37.21875 C 28.5625 37.622345 28.908905 37.9375 29.3125 37.9375 C 29.716095 37.9375 30.03125 37.622345 30.03125 37.21875 C 30.03125 36.815155 29.716095 36.5 29.3125 36.5 z M 31.4375 36.5 C 31.033905 36.5 30.6875 36.815155 30.6875 37.21875 C 30.6875 37.622345 31.033905 37.9375 31.4375 37.9375 C 31.841095 37.9375 32.15625 37.622345 32.15625 37.21875 C 32.15625 36.815155 31.841095 36.5 31.4375 36.5 z M 33.5625 36.5 C 33.158905 36.5 32.8125 36.815155 32.8125 37.21875 C 32.8125 37.622345 33.158905 37.9375 33.5625 37.9375 C 33.966095 37.9375 34.28125 37.622345 34.28125 37.21875 C 34.28125 36.815155 33.966095 36.5 33.5625 36.5 z M 35.6875 36.5 C 35.283905 36.5 34.96875 36.815155 34.96875 37.21875 C 34.96875 37.622345 35.283905 37.9375 35.6875 37.9375 C 36.091095 37.9375 36.40625 37.622345 36.40625 37.21875 C 36.40625 36.815155 36.091095 36.5 35.6875 36.5 z M 37.8125 36.5 C 37.408905 36.5 37.09375 36.815155 37.09375 37.21875 C 37.09375 37.622345 37.408905 37.9375 37.8125 37.9375 C 38.216095 37.9375 38.53125 37.622345 38.53125 37.21875 C 38.53125 36.815155 38.216095 36.5 37.8125 36.5 z M 39.9375 36.5 C 39.533905 36.5 39.21875 36.815155 39.21875 37.21875 C 39.21875 37.622345 39.533905 37.9375 39.9375 37.9375 C 40.341095 37.9375 40.65625 37.622345 40.65625 37.21875 C 40.65625 36.815155 40.341095 36.5 39.9375 36.5 z M 42.0625 36.5 C 41.658905 36.5 41.34375 36.815155 41.34375 37.21875 C 41.34375 37.622345 41.658905 37.9375 42.0625 37.9375 C 42.466095 37.9375 42.78125 37.622345 42.78125 37.21875 C 42.78125 36.815155 42.466095 36.5 42.0625 36.5 z M 52.6875 36.5 C 52.283905 36.5 51.96875 36.815155 51.96875 37.21875 C 51.96875 37.622345 52.283905 37.9375 52.6875 37.9375 C 53.091095 37.9375 53.4375 37.622345 53.4375 37.21875 C 53.4375 36.815155 53.091095 36.5 52.6875 36.5 z M 54.8125 36.5 C 54.408905 36.5 54.09375 36.815155 54.09375 37.21875 C 54.09375 37.622345 54.408905 37.9375 54.8125 37.9375 C 55.216095 37.9375 55.5625 37.622345 55.5625 37.21875 C 55.5625 36.815155 55.216095 36.5 54.8125 36.5 z M 59.0625 36.5 C 58.658905 36.5 58.34375 36.815155 58.34375 37.21875 C 58.34375 37.622345 58.658905 37.9375 59.0625 37.9375 C 59.466095 37.9375 59.8125 37.622345 59.8125 37.21875 C 59.8125 36.815155 59.466095 36.5 59.0625 36.5 z M 61.1875 36.5 C 60.783905 36.5 60.46875 36.815155 60.46875 37.21875 C 60.46875 37.622345 60.783905 37.9375 61.1875 37.9375 C 61.591095 37.9375 61.9375 37.622345 61.9375 37.21875 C 61.9375 36.815155 61.591095 36.5 61.1875 36.5 z M 63.3125 36.5 C 62.908905 36.5 62.59375 36.815155 62.59375 37.21875 C 62.59375 37.622345 62.908905 37.9375 63.3125 37.9375 C 63.716095 37.9375 64.0625 37.622345 64.0625 37.21875 C 64.0625 36.815155 63.716095 36.5 63.3125 36.5 z M 65.4375 36.5 C 65.033905 36.5 64.71875 36.815155 64.71875 37.21875 C 64.71875 37.622345 65.033905 37.9375 65.4375 37.9375 C 65.841095 37.9375 66.1875 37.622345 66.1875 37.21875 C 66.1875 36.815155 65.841095 36.5 65.4375 36.5 z M 67.5625 36.5 C 67.158905 36.5 66.84375 36.815155 66.84375 37.21875 C 66.84375 37.622345 67.158905 37.9375 67.5625 37.9375 C 67.966095 37.9375 68.3125 37.622345 68.3125 37.21875 C 68.3125 36.815155 67.966095 36.5 67.5625 36.5 z M 69.71875 36.5 C 69.315155 36.5 68.96875 36.815155 68.96875 37.21875 C 68.96875 37.622345 69.315155 37.9375 69.71875 37.9375 C 70.122345 37.9375 70.4375 37.622345 70.4375 37.21875 C 70.4375 36.815155 70.122345 36.5 69.71875 36.5 z M 71.84375 36.5 C 71.440155 36.5 71.09375 36.815155 71.09375 37.21875 C 71.09375 37.622345 71.440155 37.9375 71.84375 37.9375 C 72.247345 37.9375 72.5625 37.622345 72.5625 37.21875 C 72.5625 36.815155 72.247345 36.5 71.84375 36.5 z M 73.96875 36.5 C 73.565155 36.5 73.21875 36.815155 73.21875 37.21875 C 73.21875 37.622345 73.565155 37.9375 73.96875 37.9375 C 74.372345 37.9375 74.6875 37.622345 74.6875 37.21875 C 74.6875 36.815155 74.372345 36.5 73.96875 36.5 z M 76.09375 36.5 C 75.690155 36.5 75.34375 36.815155 75.34375 37.21875 C 75.34375 37.622345 75.690155 37.9375 76.09375 37.9375 C 76.497345 37.9375 76.8125 37.622345 76.8125 37.21875 C 76.8125 36.815155 76.497345 36.5 76.09375 36.5 z M 78.21875 36.5 C 77.815155 36.5 77.46875 36.815155 77.46875 37.21875 C 77.46875 37.622345 77.815155 37.9375 78.21875 37.9375 C 78.622345 37.9375 78.9375 37.622345 78.9375 37.21875 C 78.9375 36.815155 78.622345 36.5 78.21875 36.5 z M 80.34375 36.5 C 79.940155 36.5 79.59375 36.815155 79.59375 37.21875 C 79.59375 37.622345 79.940155 37.9375 80.34375 37.9375 C 80.747345 37.9375 81.0625 37.622345 81.0625 37.21875 C 81.0625 36.815155 80.747345 36.5 80.34375 36.5 z M 82.46875 36.5 C 82.065155 36.5 81.71875 36.815155 81.71875 37.21875 C 81.71875 37.622345 82.065155 37.9375 82.46875 37.9375 C 82.872345 37.9375 83.1875 37.622345 83.1875 37.21875 C 83.1875 36.815155 82.872345 36.5 82.46875 36.5 z M 84.59375 36.5 C 84.190155 36.5 83.84375 36.815155 83.84375 37.21875 C 83.84375 37.622345 84.190155 37.9375 84.59375 37.9375 C 84.997345 37.9375 85.3125 37.622345 85.3125 37.21875 C 85.3125 36.815155 84.997345 36.5 84.59375 36.5 z M 86.71875 36.5 C 86.315155 36.5 85.96875 36.815155 85.96875 37.21875 C 85.96875 37.622345 86.315155 37.9375 86.71875 37.9375 C 87.122345 37.9375 87.4375 37.622345 87.4375 37.21875 C 87.4375 36.815155 87.122345 36.5 86.71875 36.5 z M 88.84375 36.5 C 88.440155 36.5 88.09375 36.815155 88.09375 37.21875 C 88.09375 37.622345 88.440155 37.9375 88.84375 37.9375 C 89.247345 37.9375 89.5625 37.622345 89.5625 37.21875 C 89.5625 36.815155 89.247345 36.5 88.84375 36.5 z M 90.96875 36.5 C 90.565155 36.5 90.21875 36.815155 90.21875 37.21875 C 90.21875 37.622345 90.565155 37.9375 90.96875 37.9375 C 91.372345 37.9375 91.6875 37.622345 91.6875 37.21875 C 91.6875 36.815155 91.372345 36.5 90.96875 36.5 z M 10.15625 38.59375 C 9.7526554 38.59375 9.4375 38.940155 9.4375 39.34375 C 9.4375 39.747345 9.7526554 40.0625 10.15625 40.0625 C 10.559845 40.0625 10.90625 39.747345 10.90625 39.34375 C 10.90625 38.940155 10.559845 38.59375 10.15625 38.59375 z M 12.3125 38.59375 C 11.908905 38.59375 11.5625 38.940155 11.5625 39.34375 C 11.5625 39.747345 11.908905 40.0625 12.3125 40.0625 C 12.716095 40.0625 13.03125 39.747345 13.03125 39.34375 C 13.03125 38.940155 12.716095 38.59375 12.3125 38.59375 z M 14.4375 38.59375 C 14.033905 38.59375 13.6875 38.940155 13.6875 39.34375 C 13.6875 39.747345 14.033905 40.0625 14.4375 40.0625 C 14.841095 40.0625 15.15625 39.747345 15.15625 39.34375 C 15.15625 38.940155 14.841095 38.59375 14.4375 38.59375 z M 16.5625 38.59375 C 16.158905 38.59375 15.8125 38.940155 15.8125 39.34375 C 15.8125 39.747345 16.158905 40.0625 16.5625 40.0625 C 16.966095 40.0625 17.28125 39.747345 17.28125 39.34375 C 17.28125 38.940155 16.966095 38.59375 16.5625 38.59375 z M 18.6875 38.59375 C 18.283905 38.59375 17.9375 38.940155 17.9375 39.34375 C 17.9375 39.747345 18.283905 40.0625 18.6875 40.0625 C 19.091095 40.0625 19.40625 39.747345 19.40625 39.34375 C 19.40625 38.940155 19.091095 38.59375 18.6875 38.59375 z M 20.8125 38.59375 C 20.408905 38.59375 20.0625 38.940155 20.0625 39.34375 C 20.0625 39.747345 20.408905 40.0625 20.8125 40.0625 C 21.216095 40.0625 21.53125 39.747345 21.53125 39.34375 C 21.53125 38.940155 21.216095 38.59375 20.8125 38.59375 z M 22.9375 38.59375 C 22.533905 38.59375 22.1875 38.940155 22.1875 39.34375 C 22.1875 39.747345 22.533905 40.0625 22.9375 40.0625 C 23.341095 40.0625 23.65625 39.747345 23.65625 39.34375 C 23.65625 38.940155 23.341095 38.59375 22.9375 38.59375 z M 25.0625 38.59375 C 24.658905 38.59375 24.3125 38.940155 24.3125 39.34375 C 24.3125 39.747345 24.658905 40.0625 25.0625 40.0625 C 25.466095 40.0625 25.78125 39.747345 25.78125 39.34375 C 25.78125 38.940155 25.466095 38.59375 25.0625 38.59375 z M 27.1875 38.59375 C 26.783905 38.59375 26.4375 38.940155 26.4375 39.34375 C 26.4375 39.747345 26.783905 40.0625 27.1875 40.0625 C 27.591095 40.0625 27.90625 39.747345 27.90625 39.34375 C 27.90625 38.940155 27.591095 38.59375 27.1875 38.59375 z M 33.5625 38.59375 C 33.158905 38.59375 32.8125 38.940155 32.8125 39.34375 C 32.8125 39.747345 33.158905 40.0625 33.5625 40.0625 C 33.966095 40.0625 34.28125 39.747345 34.28125 39.34375 C 34.28125 38.940155 33.966095 38.59375 33.5625 38.59375 z M 35.6875 38.59375 C 35.283905 38.59375 34.96875 38.940155 34.96875 39.34375 C 34.96875 39.747345 35.283905 40.0625 35.6875 40.0625 C 36.091095 40.0625 36.40625 39.747345 36.40625 39.34375 C 36.40625 38.940155 36.091095 38.59375 35.6875 38.59375 z M 44.1875 38.59375 C 44.086601 38.59375 43.993678 38.619271 43.90625 38.65625 C 43.643965 38.767187 43.46875 39.041054 43.46875 39.34375 C 43.46875 39.747345 43.783905 40.0625 44.1875 40.0625 C 44.591095 40.0625 44.90625 39.747345 44.90625 39.34375 C 44.90625 38.940155 44.591095 38.59375 44.1875 38.59375 z M 50.5625 38.59375 C 50.158905 38.59375 49.84375 38.940155 49.84375 39.34375 C 49.84375 39.747345 50.158905 40.0625 50.5625 40.0625 C 50.966095 40.0625 51.3125 39.747345 51.3125 39.34375 C 51.3125 38.940155 50.966095 38.59375 50.5625 38.59375 z M 52.6875 38.59375 C 52.283905 38.59375 51.96875 38.940155 51.96875 39.34375 C 51.96875 39.747345 52.283905 40.0625 52.6875 40.0625 C 53.091095 40.0625 53.4375 39.747345 53.4375 39.34375 C 53.4375 38.940155 53.091095 38.59375 52.6875 38.59375 z M 54.8125 38.59375 C 54.408905 38.59375 54.09375 38.940155 54.09375 39.34375 C 54.09375 39.747345 54.408905 40.0625 54.8125 40.0625 C 55.216095 40.0625 55.5625 39.747345 55.5625 39.34375 C 55.5625 38.940155 55.216095 38.59375 54.8125 38.59375 z M 56.9375 38.59375 C 56.533905 38.59375 56.21875 38.940155 56.21875 39.34375 C 56.21875 39.747345 56.533905 40.0625 56.9375 40.0625 C 57.341095 40.0625 57.6875 39.747345 57.6875 39.34375 C 57.6875 38.940155 57.341095 38.59375 56.9375 38.59375 z M 59.0625 38.59375 C 58.658905 38.59375 58.34375 38.940155 58.34375 39.34375 C 58.34375 39.747345 58.658905 40.0625 59.0625 40.0625 C 59.466095 40.0625 59.8125 39.747345 59.8125 39.34375 C 59.8125 38.940155 59.466095 38.59375 59.0625 38.59375 z M 61.1875 38.59375 C 60.783905 38.59375 60.46875 38.940155 60.46875 39.34375 C 60.46875 39.747345 60.783905 40.0625 61.1875 40.0625 C 61.591095 40.0625 61.9375 39.747345 61.9375 39.34375 C 61.9375 38.940155 61.591095 38.59375 61.1875 38.59375 z M 63.3125 38.59375 C 62.908905 38.59375 62.59375 38.940155 62.59375 39.34375 C 62.59375 39.747345 62.908905 40.0625 63.3125 40.0625 C 63.716095 40.0625 64.0625 39.747345 64.0625 39.34375 C 64.0625 38.940155 63.716095 38.59375 63.3125 38.59375 z M 65.4375 38.59375 C 65.033905 38.59375 64.71875 38.940155 64.71875 39.34375 C 64.71875 39.747345 65.033905 40.0625 65.4375 40.0625 C 65.841095 40.0625 66.1875 39.747345 66.1875 39.34375 C 66.1875 38.940155 65.841095 38.59375 65.4375 38.59375 z M 67.5625 38.59375 C 67.158905 38.59375 66.84375 38.940155 66.84375 39.34375 C 66.84375 39.747345 67.158905 40.0625 67.5625 40.0625 C 67.966095 40.0625 68.3125 39.747345 68.3125 39.34375 C 68.3125 38.940155 67.966095 38.59375 67.5625 38.59375 z M 69.71875 38.59375 C 69.315155 38.59375 68.96875 38.940155 68.96875 39.34375 C 68.96875 39.747345 69.315155 40.0625 69.71875 40.0625 C 70.122345 40.0625 70.4375 39.747345 70.4375 39.34375 C 70.4375 38.940155 70.122345 38.59375 69.71875 38.59375 z M 71.84375 38.59375 C 71.440155 38.59375 71.09375 38.940155 71.09375 39.34375 C 71.09375 39.747345 71.440155 40.0625 71.84375 40.0625 C 72.247345 40.0625 72.5625 39.747345 72.5625 39.34375 C 72.5625 38.940155 72.247345 38.59375 71.84375 38.59375 z M 73.96875 38.59375 C 73.565155 38.59375 73.21875 38.940155 73.21875 39.34375 C 73.21875 39.747345 73.565155 40.0625 73.96875 40.0625 C 74.372345 40.0625 74.6875 39.747345 74.6875 39.34375 C 74.6875 38.940155 74.372345 38.59375 73.96875 38.59375 z M 76.09375 38.59375 C 75.690155 38.59375 75.34375 38.940155 75.34375 39.34375 C 75.34375 39.747345 75.690155 40.0625 76.09375 40.0625 C 76.497345 40.0625 76.8125 39.747345 76.8125 39.34375 C 76.8125 38.940155 76.497345 38.59375 76.09375 38.59375 z M 78.21875 38.59375 C 77.815155 38.59375 77.46875 38.940155 77.46875 39.34375 C 77.46875 39.747345 77.815155 40.0625 78.21875 40.0625 C 78.622345 40.0625 78.9375 39.747345 78.9375 39.34375 C 78.9375 38.940155 78.622345 38.59375 78.21875 38.59375 z M 80.34375 38.59375 C 79.940155 38.59375 79.59375 38.940155 79.59375 39.34375 C 79.59375 39.747345 79.940155 40.0625 80.34375 40.0625 C 80.747345 40.0625 81.0625 39.747345 81.0625 39.34375 C 81.0625 38.940155 80.747345 38.59375 80.34375 38.59375 z M 82.46875 38.59375 C 82.065155 38.59375 81.71875 38.940155 81.71875 39.34375 C 81.71875 39.747345 82.065155 40.0625 82.46875 40.0625 C 82.872345 40.0625 83.1875 39.747345 83.1875 39.34375 C 83.1875 38.940155 82.872345 38.59375 82.46875 38.59375 z M 84.59375 38.59375 C 84.190155 38.59375 83.84375 38.940155 83.84375 39.34375 C 83.84375 39.747345 84.190155 40.0625 84.59375 40.0625 C 84.997345 40.0625 85.3125 39.747345 85.3125 39.34375 C 85.3125 38.940155 84.997345 38.59375 84.59375 38.59375 z M 86.71875 38.59375 C 86.315155 38.59375 85.96875 38.940155 85.96875 39.34375 C 85.96875 39.747345 86.315155 40.0625 86.71875 40.0625 C 87.122345 40.0625 87.4375 39.747345 87.4375 39.34375 C 87.4375 38.940155 87.122345 38.59375 86.71875 38.59375 z M 88.84375 38.59375 C 88.440155 38.59375 88.09375 38.940155 88.09375 39.34375 C 88.09375 39.747345 88.440155 40.0625 88.84375 40.0625 C 89.247345 40.0625 89.5625 39.747345 89.5625 39.34375 C 89.5625 38.940155 89.247345 38.59375 88.84375 38.59375 z M 8.03125 40.71875 C 7.6276554 40.71875 7.3125 41.033905 7.3125 41.4375 C 7.3125 41.841095 7.6276554 42.1875 8.03125 42.1875 C 8.4348446 42.1875 8.78125 41.841095 8.78125 41.4375 C 8.78125 41.033905 8.4348446 40.71875 8.03125 40.71875 z M 16.5625 40.71875 C 16.158905 40.71875 15.8125 41.033905 15.8125 41.4375 C 15.8125 41.841095 16.158905 42.1875 16.5625 42.1875 C 16.966095 42.1875 17.28125 41.841095 17.28125 41.4375 C 17.28125 41.033905 16.966095 40.71875 16.5625 40.71875 z M 18.6875 40.71875 C 18.283905 40.71875 17.9375 41.033905 17.9375 41.4375 C 17.9375 41.841095 18.283905 42.1875 18.6875 42.1875 C 19.091095 42.1875 19.40625 41.841095 19.40625 41.4375 C 19.40625 41.033905 19.091095 40.71875 18.6875 40.71875 z M 20.8125 40.71875 C 20.408905 40.71875 20.0625 41.033905 20.0625 41.4375 C 20.0625 41.841095 20.408905 42.1875 20.8125 42.1875 C 21.216095 42.1875 21.53125 41.841095 21.53125 41.4375 C 21.53125 41.033905 21.216095 40.71875 20.8125 40.71875 z M 22.9375 40.71875 C 22.533905 40.71875 22.1875 41.033905 22.1875 41.4375 C 22.1875 41.841095 22.533905 42.1875 22.9375 42.1875 C 23.341095 42.1875 23.65625 41.841095 23.65625 41.4375 C 23.65625 41.033905 23.341095 40.71875 22.9375 40.71875 z M 25.0625 40.71875 C 24.658905 40.71875 24.3125 41.033905 24.3125 41.4375 C 24.3125 41.841095 24.658905 42.1875 25.0625 42.1875 C 25.466095 42.1875 25.78125 41.841095 25.78125 41.4375 C 25.78125 41.033905 25.466095 40.71875 25.0625 40.71875 z M 29.3125 40.71875 C 28.908905 40.71875 28.5625 41.033905 28.5625 41.4375 C 28.5625 41.841095 28.908905 42.1875 29.3125 42.1875 C 29.716095 42.1875 30.03125 41.841095 30.03125 41.4375 C 30.03125 41.033905 29.716095 40.71875 29.3125 40.71875 z M 31.4375 40.71875 C 31.033905 40.71875 30.6875 41.033905 30.6875 41.4375 C 30.6875 41.841095 31.033905 42.1875 31.4375 42.1875 C 31.841095 42.1875 32.15625 41.841095 32.15625 41.4375 C 32.15625 41.033905 31.841095 40.71875 31.4375 40.71875 z M 46.3125 40.71875 C 45.908905 40.71875 45.59375 41.033905 45.59375 41.4375 C 45.59375 41.841095 45.908905 42.1875 46.3125 42.1875 C 46.716095 42.1875 47.03125 41.841095 47.03125 41.4375 C 47.03125 41.033905 46.716095 40.71875 46.3125 40.71875 z M 50.5625 40.71875 C 50.158905 40.71875 49.84375 41.033905 49.84375 41.4375 C 49.84375 41.841095 50.158905 42.1875 50.5625 42.1875 C 50.966095 42.1875 51.3125 41.841095 51.3125 41.4375 C 51.3125 41.033905 50.966095 40.71875 50.5625 40.71875 z M 52.6875 40.71875 C 52.283905 40.71875 51.96875 41.033905 51.96875 41.4375 C 51.96875 41.841095 52.283905 42.1875 52.6875 42.1875 C 53.091095 42.1875 53.4375 41.841095 53.4375 41.4375 C 53.4375 41.033905 53.091095 40.71875 52.6875 40.71875 z M 54.8125 40.71875 C 54.408905 40.71875 54.09375 41.033905 54.09375 41.4375 C 54.09375 41.841095 54.408905 42.1875 54.8125 42.1875 C 55.216095 42.1875 55.5625 41.841095 55.5625 41.4375 C 55.5625 41.033905 55.216095 40.71875 54.8125 40.71875 z M 56.9375 40.71875 C 56.533905 40.71875 56.21875 41.033905 56.21875 41.4375 C 56.21875 41.841095 56.533905 42.1875 56.9375 42.1875 C 57.341095 42.1875 57.6875 41.841095 57.6875 41.4375 C 57.6875 41.033905 57.341095 40.71875 56.9375 40.71875 z M 59.0625 40.71875 C 58.658905 40.71875 58.34375 41.033905 58.34375 41.4375 C 58.34375 41.841095 58.658905 42.1875 59.0625 42.1875 C 59.466095 42.1875 59.8125 41.841095 59.8125 41.4375 C 59.8125 41.033905 59.466095 40.71875 59.0625 40.71875 z M 61.1875 40.71875 C 60.783905 40.71875 60.46875 41.033905 60.46875 41.4375 C 60.46875 41.841095 60.783905 42.1875 61.1875 42.1875 C 61.591095 42.1875 61.9375 41.841095 61.9375 41.4375 C 61.9375 41.033905 61.591095 40.71875 61.1875 40.71875 z M 63.3125 40.71875 C 62.908905 40.71875 62.59375 41.033905 62.59375 41.4375 C 62.59375 41.841095 62.908905 42.1875 63.3125 42.1875 C 63.716095 42.1875 64.0625 41.841095 64.0625 41.4375 C 64.0625 41.033905 63.716095 40.71875 63.3125 40.71875 z M 65.4375 40.71875 C 65.033905 40.71875 64.71875 41.033905 64.71875 41.4375 C 64.71875 41.841095 65.033905 42.1875 65.4375 42.1875 C 65.841095 42.1875 66.1875 41.841095 66.1875 41.4375 C 66.1875 41.033905 65.841095 40.71875 65.4375 40.71875 z M 67.5625 40.71875 C 67.158905 40.71875 66.84375 41.033905 66.84375 41.4375 C 66.84375 41.841095 67.158905 42.1875 67.5625 42.1875 C 67.966095 42.1875 68.3125 41.841095 68.3125 41.4375 C 68.3125 41.033905 67.966095 40.71875 67.5625 40.71875 z M 69.71875 40.71875 C 69.315155 40.71875 68.96875 41.033905 68.96875 41.4375 C 68.96875 41.841095 69.315155 42.1875 69.71875 42.1875 C 70.122345 42.1875 70.4375 41.841095 70.4375 41.4375 C 70.4375 41.033905 70.122345 40.71875 69.71875 40.71875 z M 71.84375 40.71875 C 71.440155 40.71875 71.09375 41.033905 71.09375 41.4375 C 71.09375 41.841095 71.440155 42.1875 71.84375 42.1875 C 72.247345 42.1875 72.5625 41.841095 72.5625 41.4375 C 72.5625 41.033905 72.247345 40.71875 71.84375 40.71875 z M 73.96875 40.71875 C 73.565155 40.71875 73.21875 41.033905 73.21875 41.4375 C 73.21875 41.841095 73.565155 42.1875 73.96875 42.1875 C 74.372345 42.1875 74.6875 41.841095 74.6875 41.4375 C 74.6875 41.033905 74.372345 40.71875 73.96875 40.71875 z M 76.09375 40.71875 C 75.690155 40.71875 75.34375 41.033905 75.34375 41.4375 C 75.34375 41.841095 75.690155 42.1875 76.09375 42.1875 C 76.497345 42.1875 76.8125 41.841095 76.8125 41.4375 C 76.8125 41.033905 76.497345 40.71875 76.09375 40.71875 z M 78.21875 40.71875 C 77.815155 40.71875 77.46875 41.033905 77.46875 41.4375 C 77.46875 41.841095 77.815155 42.1875 78.21875 42.1875 C 78.622345 42.1875 78.9375 41.841095 78.9375 41.4375 C 78.9375 41.033905 78.622345 40.71875 78.21875 40.71875 z M 80.34375 40.71875 C 79.940155 40.71875 79.59375 41.033905 79.59375 41.4375 C 79.59375 41.841095 79.940155 42.1875 80.34375 42.1875 C 80.747345 42.1875 81.0625 41.841095 81.0625 41.4375 C 81.0625 41.033905 80.747345 40.71875 80.34375 40.71875 z M 82.46875 40.71875 C 82.065155 40.71875 81.71875 41.033905 81.71875 41.4375 C 81.71875 41.841095 82.065155 42.1875 82.46875 42.1875 C 82.872345 42.1875 83.1875 41.841095 83.1875 41.4375 C 83.1875 41.033905 82.872345 40.71875 82.46875 40.71875 z M 16.5625 42.8125 C 16.158905 42.8125 15.8125 43.158905 15.8125 43.5625 C 15.8125 43.966095 16.158905 44.28125 16.5625 44.28125 C 16.966095 44.28125 17.28125 43.966095 17.28125 43.5625 C 17.28125 43.158905 16.966095 42.8125 16.5625 42.8125 z M 18.6875 42.8125 C 18.283905 42.8125 17.9375 43.158905 17.9375 43.5625 C 17.9375 43.966095 18.283905 44.28125 18.6875 44.28125 C 19.091095 44.28125 19.40625 43.966095 19.40625 43.5625 C 19.40625 43.158905 19.091095 42.8125 18.6875 42.8125 z M 20.8125 42.8125 C 20.408905 42.8125 20.0625 43.158905 20.0625 43.5625 C 20.0625 43.966095 20.408905 44.28125 20.8125 44.28125 C 21.216095 44.28125 21.53125 43.966095 21.53125 43.5625 C 21.53125 43.158905 21.216095 42.8125 20.8125 42.8125 z M 22.9375 42.8125 C 22.533905 42.8125 22.1875 43.158905 22.1875 43.5625 C 22.1875 43.966095 22.533905 44.28125 22.9375 44.28125 C 23.341095 44.28125 23.65625 43.966095 23.65625 43.5625 C 23.65625 43.158905 23.341095 42.8125 22.9375 42.8125 z M 25.0625 42.8125 C 24.658905 42.8125 24.3125 43.158905 24.3125 43.5625 C 24.3125 43.966095 24.658905 44.28125 25.0625 44.28125 C 25.466095 44.28125 25.78125 43.966095 25.78125 43.5625 C 25.78125 43.158905 25.466095 42.8125 25.0625 42.8125 z M 27.1875 42.8125 C 26.783905 42.8125 26.4375 43.158905 26.4375 43.5625 C 26.4375 43.966095 26.783905 44.28125 27.1875 44.28125 C 27.591095 44.28125 27.90625 43.966095 27.90625 43.5625 C 27.90625 43.158905 27.591095 42.8125 27.1875 42.8125 z M 29.3125 42.8125 C 28.908905 42.8125 28.5625 43.158905 28.5625 43.5625 C 28.5625 43.966095 28.908905 44.28125 29.3125 44.28125 C 29.716095 44.28125 30.03125 43.966095 30.03125 43.5625 C 30.03125 43.158905 29.716095 42.8125 29.3125 42.8125 z M 46.3125 42.8125 C 45.908905 42.8125 45.59375 43.158905 45.59375 43.5625 C 45.59375 43.966095 45.908905 44.28125 46.3125 44.28125 C 46.716095 44.28125 47.03125 43.966095 47.03125 43.5625 C 47.03125 43.158905 46.716095 42.8125 46.3125 42.8125 z M 48.4375 42.8125 C 48.033905 42.8125 47.71875 43.158905 47.71875 43.5625 C 47.71875 43.966095 48.033905 44.28125 48.4375 44.28125 C 48.841095 44.28125 49.1875 43.966095 49.1875 43.5625 C 49.1875 43.158905 48.841095 42.8125 48.4375 42.8125 z M 50.5625 42.8125 C 50.158905 42.8125 49.84375 43.158905 49.84375 43.5625 C 49.84375 43.966095 50.158905 44.28125 50.5625 44.28125 C 50.966095 44.28125 51.3125 43.966095 51.3125 43.5625 C 51.3125 43.158905 50.966095 42.8125 50.5625 42.8125 z M 52.6875 42.8125 C 52.283905 42.8125 51.96875 43.158905 51.96875 43.5625 C 51.96875 43.966095 52.283905 44.28125 52.6875 44.28125 C 53.091095 44.28125 53.4375 43.966095 53.4375 43.5625 C 53.4375 43.158905 53.091095 42.8125 52.6875 42.8125 z M 54.8125 42.8125 C 54.408905 42.8125 54.09375 43.158905 54.09375 43.5625 C 54.09375 43.966095 54.408905 44.28125 54.8125 44.28125 C 55.216095 44.28125 55.5625 43.966095 55.5625 43.5625 C 55.5625 43.158905 55.216095 42.8125 54.8125 42.8125 z M 56.9375 42.8125 C 56.533905 42.8125 56.21875 43.158905 56.21875 43.5625 C 56.21875 43.966095 56.533905 44.28125 56.9375 44.28125 C 57.341095 44.28125 57.6875 43.966095 57.6875 43.5625 C 57.6875 43.158905 57.341095 42.8125 56.9375 42.8125 z M 59.0625 42.8125 C 58.658905 42.8125 58.34375 43.158905 58.34375 43.5625 C 58.34375 43.966095 58.658905 44.28125 59.0625 44.28125 C 59.466095 44.28125 59.8125 43.966095 59.8125 43.5625 C 59.8125 43.158905 59.466095 42.8125 59.0625 42.8125 z M 61.1875 42.8125 C 60.783905 42.8125 60.46875 43.158905 60.46875 43.5625 C 60.46875 43.966095 60.783905 44.28125 61.1875 44.28125 C 61.591095 44.28125 61.9375 43.966095 61.9375 43.5625 C 61.9375 43.158905 61.591095 42.8125 61.1875 42.8125 z M 63.3125 42.8125 C 62.908905 42.8125 62.59375 43.158905 62.59375 43.5625 C 62.59375 43.966095 62.908905 44.28125 63.3125 44.28125 C 63.716095 44.28125 64.0625 43.966095 64.0625 43.5625 C 64.0625 43.158905 63.716095 42.8125 63.3125 42.8125 z M 65.4375 42.8125 C 65.033905 42.8125 64.71875 43.158905 64.71875 43.5625 C 64.71875 43.966095 65.033905 44.28125 65.4375 44.28125 C 65.841095 44.28125 66.1875 43.966095 66.1875 43.5625 C 66.1875 43.158905 65.841095 42.8125 65.4375 42.8125 z M 67.5625 42.8125 C 67.158905 42.8125 66.84375 43.158905 66.84375 43.5625 C 66.84375 43.966095 67.158905 44.28125 67.5625 44.28125 C 67.966095 44.28125 68.3125 43.966095 68.3125 43.5625 C 68.3125 43.158905 67.966095 42.8125 67.5625 42.8125 z M 69.71875 42.8125 C 69.315155 42.8125 68.96875 43.158905 68.96875 43.5625 C 68.96875 43.966095 69.315155 44.28125 69.71875 44.28125 C 70.122345 44.28125 70.4375 43.966095 70.4375 43.5625 C 70.4375 43.158905 70.122345 42.8125 69.71875 42.8125 z M 71.84375 42.8125 C 71.440155 42.8125 71.09375 43.158905 71.09375 43.5625 C 71.09375 43.966095 71.440155 44.28125 71.84375 44.28125 C 72.247345 44.28125 72.5625 43.966095 72.5625 43.5625 C 72.5625 43.158905 72.247345 42.8125 71.84375 42.8125 z M 73.96875 42.8125 C 73.565155 42.8125 73.21875 43.158905 73.21875 43.5625 C 73.21875 43.966095 73.565155 44.28125 73.96875 44.28125 C 74.372345 44.28125 74.6875 43.966095 74.6875 43.5625 C 74.6875 43.158905 74.372345 42.8125 73.96875 42.8125 z M 76.09375 42.8125 C 75.690155 42.8125 75.34375 43.158905 75.34375 43.5625 C 75.34375 43.966095 75.690155 44.28125 76.09375 44.28125 C 76.497345 44.28125 76.8125 43.966095 76.8125 43.5625 C 76.8125 43.158905 76.497345 42.8125 76.09375 42.8125 z M 78.21875 42.8125 C 77.815155 42.8125 77.46875 43.158905 77.46875 43.5625 C 77.46875 43.966095 77.815155 44.28125 78.21875 44.28125 C 78.622345 44.28125 78.9375 43.966095 78.9375 43.5625 C 78.9375 43.158905 78.622345 42.8125 78.21875 42.8125 z M 80.34375 42.8125 C 79.940155 42.8125 79.59375 43.158905 79.59375 43.5625 C 79.59375 43.966095 79.940155 44.28125 80.34375 44.28125 C 80.747345 44.28125 81.0625 43.966095 81.0625 43.5625 C 81.0625 43.158905 80.747345 42.8125 80.34375 42.8125 z M 82.46875 42.8125 C 82.065155 42.8125 81.71875 43.158905 81.71875 43.5625 C 81.71875 43.966095 82.065155 44.28125 82.46875 44.28125 C 82.872345 44.28125 83.1875 43.966095 83.1875 43.5625 C 83.1875 43.158905 82.872345 42.8125 82.46875 42.8125 z M 88.84375 42.8125 C 88.440155 42.8125 88.09375 43.158905 88.09375 43.5625 C 88.09375 43.966095 88.440155 44.28125 88.84375 44.28125 C 89.247345 44.28125 89.5625 43.966095 89.5625 43.5625 C 89.5625 43.158905 89.247345 42.8125 88.84375 42.8125 z M 14.4375 44.9375 C 14.033905 44.9375 13.6875 45.252655 13.6875 45.65625 C 13.6875 46.059845 14.033905 46.40625 14.4375 46.40625 C 14.841095 46.40625 15.15625 46.059845 15.15625 45.65625 C 15.15625 45.252655 14.841095 44.9375 14.4375 44.9375 z M 16.5625 44.9375 C 16.158905 44.9375 15.8125 45.252655 15.8125 45.65625 C 15.8125 46.059845 16.158905 46.40625 16.5625 46.40625 C 16.966095 46.40625 17.28125 46.059845 17.28125 45.65625 C 17.28125 45.252655 16.966095 44.9375 16.5625 44.9375 z M 18.6875 44.9375 C 18.283905 44.9375 17.9375 45.252655 17.9375 45.65625 C 17.9375 46.059845 18.283905 46.40625 18.6875 46.40625 C 19.091095 46.40625 19.40625 46.059845 19.40625 45.65625 C 19.40625 45.252655 19.091095 44.9375 18.6875 44.9375 z M 20.8125 44.9375 C 20.408905 44.9375 20.0625 45.252655 20.0625 45.65625 C 20.0625 46.059845 20.408905 46.40625 20.8125 46.40625 C 21.216095 46.40625 21.53125 46.059845 21.53125 45.65625 C 21.53125 45.252655 21.216095 44.9375 20.8125 44.9375 z M 22.9375 44.9375 C 22.533905 44.9375 22.1875 45.252655 22.1875 45.65625 C 22.1875 46.059845 22.533905 46.40625 22.9375 46.40625 C 23.341095 46.40625 23.65625 46.059845 23.65625 45.65625 C 23.65625 45.252655 23.341095 44.9375 22.9375 44.9375 z M 25.0625 44.9375 C 24.658905 44.9375 24.3125 45.252655 24.3125 45.65625 C 24.3125 46.059845 24.658905 46.40625 25.0625 46.40625 C 25.466095 46.40625 25.78125 46.059845 25.78125 45.65625 C 25.78125 45.252655 25.466095 44.9375 25.0625 44.9375 z M 27.1875 44.9375 C 26.783905 44.9375 26.4375 45.252655 26.4375 45.65625 C 26.4375 46.059845 26.783905 46.40625 27.1875 46.40625 C 27.591095 46.40625 27.90625 46.059845 27.90625 45.65625 C 27.90625 45.252655 27.591095 44.9375 27.1875 44.9375 z M 46.3125 44.9375 C 45.908905 44.9375 45.59375 45.252655 45.59375 45.65625 C 45.59375 46.059845 45.908905 46.40625 46.3125 46.40625 C 46.716095 46.40625 47.03125 46.059845 47.03125 45.65625 C 47.03125 45.252655 46.716095 44.9375 46.3125 44.9375 z M 50.5625 44.9375 C 50.158905 44.9375 49.84375 45.252655 49.84375 45.65625 C 49.84375 46.059845 50.158905 46.40625 50.5625 46.40625 C 50.966095 46.40625 51.3125 46.059845 51.3125 45.65625 C 51.3125 45.252655 50.966095 44.9375 50.5625 44.9375 z M 52.6875 44.9375 C 52.283905 44.9375 51.96875 45.252655 51.96875 45.65625 C 51.96875 46.059845 52.283905 46.40625 52.6875 46.40625 C 53.091095 46.40625 53.4375 46.059845 53.4375 45.65625 C 53.4375 45.252655 53.091095 44.9375 52.6875 44.9375 z M 54.8125 44.9375 C 54.408905 44.9375 54.09375 45.252655 54.09375 45.65625 C 54.09375 46.059845 54.408905 46.40625 54.8125 46.40625 C 55.216095 46.40625 55.5625 46.059845 55.5625 45.65625 C 55.5625 45.252655 55.216095 44.9375 54.8125 44.9375 z M 56.9375 44.9375 C 56.533905 44.9375 56.21875 45.252655 56.21875 45.65625 C 56.21875 46.059845 56.533905 46.40625 56.9375 46.40625 C 57.341095 46.40625 57.6875 46.059845 57.6875 45.65625 C 57.6875 45.252655 57.341095 44.9375 56.9375 44.9375 z M 59.0625 44.9375 C 58.658905 44.9375 58.34375 45.252655 58.34375 45.65625 C 58.34375 46.059845 58.658905 46.40625 59.0625 46.40625 C 59.466095 46.40625 59.8125 46.059845 59.8125 45.65625 C 59.8125 45.252655 59.466095 44.9375 59.0625 44.9375 z M 61.1875 44.9375 C 60.783905 44.9375 60.46875 45.252655 60.46875 45.65625 C 60.46875 46.059845 60.783905 46.40625 61.1875 46.40625 C 61.591095 46.40625 61.9375 46.059845 61.9375 45.65625 C 61.9375 45.252655 61.591095 44.9375 61.1875 44.9375 z M 63.3125 44.9375 C 62.908905 44.9375 62.59375 45.252655 62.59375 45.65625 C 62.59375 46.059845 62.908905 46.40625 63.3125 46.40625 C 63.716095 46.40625 64.0625 46.059845 64.0625 45.65625 C 64.0625 45.252655 63.716095 44.9375 63.3125 44.9375 z M 65.4375 44.9375 C 65.033905 44.9375 64.71875 45.252655 64.71875 45.65625 C 64.71875 46.059845 65.033905 46.40625 65.4375 46.40625 C 65.841095 46.40625 66.1875 46.059845 66.1875 45.65625 C 66.1875 45.252655 65.841095 44.9375 65.4375 44.9375 z M 67.5625 44.9375 C 67.158905 44.9375 66.84375 45.252655 66.84375 45.65625 C 66.84375 46.059845 67.158905 46.40625 67.5625 46.40625 C 67.966095 46.40625 68.3125 46.059845 68.3125 45.65625 C 68.3125 45.252655 67.966095 44.9375 67.5625 44.9375 z M 69.71875 44.9375 C 69.315155 44.9375 68.96875 45.252655 68.96875 45.65625 C 68.96875 46.059845 69.315155 46.40625 69.71875 46.40625 C 70.122345 46.40625 70.4375 46.059845 70.4375 45.65625 C 70.4375 45.252655 70.122345 44.9375 69.71875 44.9375 z M 71.84375 44.9375 C 71.440155 44.9375 71.09375 45.252655 71.09375 45.65625 C 71.09375 46.059845 71.440155 46.40625 71.84375 46.40625 C 72.247345 46.40625 72.5625 46.059845 72.5625 45.65625 C 72.5625 45.252655 72.247345 44.9375 71.84375 44.9375 z M 73.96875 44.9375 C 73.565155 44.9375 73.21875 45.252655 73.21875 45.65625 C 73.21875 46.059845 73.565155 46.40625 73.96875 46.40625 C 74.372345 46.40625 74.6875 46.059845 74.6875 45.65625 C 74.6875 45.252655 74.372345 44.9375 73.96875 44.9375 z M 76.09375 44.9375 C 75.690155 44.9375 75.34375 45.252655 75.34375 45.65625 C 75.34375 46.059845 75.690155 46.40625 76.09375 46.40625 C 76.497345 46.40625 76.8125 46.059845 76.8125 45.65625 C 76.8125 45.252655 76.497345 44.9375 76.09375 44.9375 z M 78.21875 44.9375 C 77.815155 44.9375 77.46875 45.252655 77.46875 45.65625 C 77.46875 46.059845 77.815155 46.40625 78.21875 46.40625 C 78.622345 46.40625 78.9375 46.059845 78.9375 45.65625 C 78.9375 45.252655 78.622345 44.9375 78.21875 44.9375 z M 80.34375 44.9375 C 79.940155 44.9375 79.59375 45.252655 79.59375 45.65625 C 79.59375 46.059845 79.940155 46.40625 80.34375 46.40625 C 80.747345 46.40625 81.0625 46.059845 81.0625 45.65625 C 81.0625 45.252655 80.747345 44.9375 80.34375 44.9375 z M 82.46875 44.9375 C 82.065155 44.9375 81.71875 45.252655 81.71875 45.65625 C 81.71875 46.059845 82.065155 46.40625 82.46875 46.40625 C 82.872345 46.40625 83.1875 46.059845 83.1875 45.65625 C 83.1875 45.252655 82.872345 44.9375 82.46875 44.9375 z M 14.4375 47.0625 C 14.033905 47.0625 13.6875 47.377655 13.6875 47.78125 C 13.6875 48.184845 14.033905 48.5 14.4375 48.5 C 14.841095 48.5 15.15625 48.184845 15.15625 47.78125 C 15.15625 47.377655 14.841095 47.0625 14.4375 47.0625 z M 16.5625 47.0625 C 16.158905 47.0625 15.8125 47.377655 15.8125 47.78125 C 15.8125 48.184845 16.158905 48.5 16.5625 48.5 C 16.966095 48.5 17.28125 48.184845 17.28125 47.78125 C 17.28125 47.377655 16.966095 47.0625 16.5625 47.0625 z M 18.6875 47.0625 C 18.283905 47.0625 17.9375 47.377655 17.9375 47.78125 C 17.9375 48.184845 18.283905 48.5 18.6875 48.5 C 19.091095 48.5 19.40625 48.184845 19.40625 47.78125 C 19.40625 47.377655 19.091095 47.0625 18.6875 47.0625 z M 20.8125 47.0625 C 20.408905 47.0625 20.0625 47.377655 20.0625 47.78125 C 20.0625 48.184845 20.408905 48.5 20.8125 48.5 C 21.216095 48.5 21.53125 48.184845 21.53125 47.78125 C 21.53125 47.377655 21.216095 47.0625 20.8125 47.0625 z M 22.9375 47.0625 C 22.533905 47.0625 22.1875 47.377655 22.1875 47.78125 C 22.1875 48.184845 22.533905 48.5 22.9375 48.5 C 23.341095 48.5 23.65625 48.184845 23.65625 47.78125 C 23.65625 47.377655 23.341095 47.0625 22.9375 47.0625 z M 25.0625 47.0625 C 24.658905 47.0625 24.3125 47.377655 24.3125 47.78125 C 24.3125 48.184845 24.658905 48.5 25.0625 48.5 C 25.466095 48.5 25.78125 48.184845 25.78125 47.78125 C 25.78125 47.377655 25.466095 47.0625 25.0625 47.0625 z M 46.3125 47.0625 C 45.908905 47.0625 45.59375 47.377655 45.59375 47.78125 C 45.59375 48.184845 45.908905 48.5 46.3125 48.5 C 46.716095 48.5 47.03125 48.184845 47.03125 47.78125 C 47.03125 47.377655 46.716095 47.0625 46.3125 47.0625 z M 48.4375 47.0625 C 48.033905 47.0625 47.71875 47.377655 47.71875 47.78125 C 47.71875 48.184845 48.033905 48.5 48.4375 48.5 C 48.841095 48.5 49.1875 48.184845 49.1875 47.78125 C 49.1875 47.377655 48.841095 47.0625 48.4375 47.0625 z M 56.9375 47.0625 C 56.533905 47.0625 56.21875 47.377655 56.21875 47.78125 C 56.21875 48.184845 56.533905 48.5 56.9375 48.5 C 57.341095 48.5 57.6875 48.184845 57.6875 47.78125 C 57.6875 47.377655 57.341095 47.0625 56.9375 47.0625 z M 59.0625 47.0625 C 58.658905 47.0625 58.34375 47.377655 58.34375 47.78125 C 58.34375 48.184845 58.658905 48.5 59.0625 48.5 C 59.466095 48.5 59.8125 48.184845 59.8125 47.78125 C 59.8125 47.377655 59.466095 47.0625 59.0625 47.0625 z M 61.1875 47.0625 C 60.783905 47.0625 60.46875 47.377655 60.46875 47.78125 C 60.46875 48.184845 60.783905 48.5 61.1875 48.5 C 61.591095 48.5 61.9375 48.184845 61.9375 47.78125 C 61.9375 47.377655 61.591095 47.0625 61.1875 47.0625 z M 63.3125 47.0625 C 62.908905 47.0625 62.59375 47.377655 62.59375 47.78125 C 62.59375 48.184845 62.908905 48.5 63.3125 48.5 C 63.716095 48.5 64.0625 48.184845 64.0625 47.78125 C 64.0625 47.377655 63.716095 47.0625 63.3125 47.0625 z M 65.4375 47.0625 C 65.033905 47.0625 64.71875 47.377655 64.71875 47.78125 C 64.71875 48.184845 65.033905 48.5 65.4375 48.5 C 65.841095 48.5 66.1875 48.184845 66.1875 47.78125 C 66.1875 47.377655 65.841095 47.0625 65.4375 47.0625 z M 67.5625 47.0625 C 67.158905 47.0625 66.84375 47.377655 66.84375 47.78125 C 66.84375 48.184845 67.158905 48.5 67.5625 48.5 C 67.966095 48.5 68.3125 48.184845 68.3125 47.78125 C 68.3125 47.377655 67.966095 47.0625 67.5625 47.0625 z M 69.71875 47.0625 C 69.315155 47.0625 68.96875 47.377655 68.96875 47.78125 C 68.96875 48.184845 69.315155 48.5 69.71875 48.5 C 70.122345 48.5 70.4375 48.184845 70.4375 47.78125 C 70.4375 47.377655 70.122345 47.0625 69.71875 47.0625 z M 71.84375 47.0625 C 71.440155 47.0625 71.09375 47.377655 71.09375 47.78125 C 71.09375 48.184845 71.440155 48.5 71.84375 48.5 C 72.247345 48.5 72.5625 48.184845 72.5625 47.78125 C 72.5625 47.377655 72.247345 47.0625 71.84375 47.0625 z M 73.96875 47.0625 C 73.565155 47.0625 73.21875 47.377655 73.21875 47.78125 C 73.21875 48.184845 73.565155 48.5 73.96875 48.5 C 74.372345 48.5 74.6875 48.184845 74.6875 47.78125 C 74.6875 47.377655 74.372345 47.0625 73.96875 47.0625 z M 76.09375 47.0625 C 75.690155 47.0625 75.34375 47.377655 75.34375 47.78125 C 75.34375 48.184845 75.690155 48.5 76.09375 48.5 C 76.497345 48.5 76.8125 48.184845 76.8125 47.78125 C 76.8125 47.377655 76.497345 47.0625 76.09375 47.0625 z M 78.21875 47.0625 C 77.815155 47.0625 77.46875 47.377655 77.46875 47.78125 C 77.46875 48.184845 77.815155 48.5 78.21875 48.5 C 78.622345 48.5 78.9375 48.184845 78.9375 47.78125 C 78.9375 47.377655 78.622345 47.0625 78.21875 47.0625 z M 16.5625 49.15625 C 16.158905 49.15625 15.8125 49.502655 15.8125 49.90625 C 15.8125 50.309845 16.158905 50.625 16.5625 50.625 C 16.966095 50.625 17.28125 50.309845 17.28125 49.90625 C 17.28125 49.502655 16.966095 49.15625 16.5625 49.15625 z M 18.6875 49.15625 C 18.283905 49.15625 17.9375 49.502655 17.9375 49.90625 C 17.9375 50.309845 18.283905 50.625 18.6875 50.625 C 19.091095 50.625 19.40625 50.309845 19.40625 49.90625 C 19.40625 49.502655 19.091095 49.15625 18.6875 49.15625 z M 25.0625 49.15625 C 24.658905 49.15625 24.3125 49.502655 24.3125 49.90625 C 24.3125 50.309845 24.658905 50.625 25.0625 50.625 C 25.466095 50.625 25.78125 50.309845 25.78125 49.90625 C 25.78125 49.502655 25.466095 49.15625 25.0625 49.15625 z M 44.1875 49.15625 C 43.783905 49.15625 43.46875 49.502655 43.46875 49.90625 C 43.46875 50.309845 43.783905 50.625 44.1875 50.625 C 44.591095 50.625 44.90625 50.309845 44.90625 49.90625 C 44.90625 49.502655 44.591095 49.15625 44.1875 49.15625 z M 46.3125 49.15625 C 45.908905 49.15625 45.59375 49.502655 45.59375 49.90625 C 45.59375 50.309845 45.908905 50.625 46.3125 50.625 C 46.716095 50.625 47.03125 50.309845 47.03125 49.90625 C 47.03125 49.502655 46.716095 49.15625 46.3125 49.15625 z M 48.4375 49.15625 C 48.033905 49.15625 47.71875 49.502655 47.71875 49.90625 C 47.71875 50.309845 48.033905 50.625 48.4375 50.625 C 48.841095 50.625 49.1875 50.309845 49.1875 49.90625 C 49.1875 49.502655 48.841095 49.15625 48.4375 49.15625 z M 50.5625 49.15625 C 50.158905 49.15625 49.84375 49.502655 49.84375 49.90625 C 49.84375 50.309845 50.158905 50.625 50.5625 50.625 C 50.966095 50.625 51.3125 50.309845 51.3125 49.90625 C 51.3125 49.502655 50.966095 49.15625 50.5625 49.15625 z M 52.6875 49.15625 C 52.283905 49.15625 51.96875 49.502655 51.96875 49.90625 C 51.96875 50.309845 52.283905 50.625 52.6875 50.625 C 53.091095 50.625 53.4375 50.309845 53.4375 49.90625 C 53.4375 49.502655 53.091095 49.15625 52.6875 49.15625 z M 54.8125 49.15625 C 54.408905 49.15625 54.09375 49.502655 54.09375 49.90625 C 54.09375 50.309845 54.408905 50.625 54.8125 50.625 C 55.216095 50.625 55.5625 50.309845 55.5625 49.90625 C 55.5625 49.502655 55.216095 49.15625 54.8125 49.15625 z M 56.9375 49.15625 C 56.533905 49.15625 56.21875 49.502655 56.21875 49.90625 C 56.21875 50.309845 56.533905 50.625 56.9375 50.625 C 57.341095 50.625 57.6875 50.309845 57.6875 49.90625 C 57.6875 49.502655 57.341095 49.15625 56.9375 49.15625 z M 59.0625 49.15625 C 58.658905 49.15625 58.34375 49.502655 58.34375 49.90625 C 58.34375 50.309845 58.658905 50.625 59.0625 50.625 C 59.466095 50.625 59.8125 50.309845 59.8125 49.90625 C 59.8125 49.502655 59.466095 49.15625 59.0625 49.15625 z M 61.1875 49.15625 C 60.783905 49.15625 60.46875 49.502655 60.46875 49.90625 C 60.46875 50.309845 60.783905 50.625 61.1875 50.625 C 61.591095 50.625 61.9375 50.309845 61.9375 49.90625 C 61.9375 49.502655 61.591095 49.15625 61.1875 49.15625 z M 63.3125 49.15625 C 62.908905 49.15625 62.59375 49.502655 62.59375 49.90625 C 62.59375 50.309845 62.908905 50.625 63.3125 50.625 C 63.716095 50.625 64.0625 50.309845 64.0625 49.90625 C 64.0625 49.502655 63.716095 49.15625 63.3125 49.15625 z M 65.4375 49.15625 C 65.033905 49.15625 64.71875 49.502655 64.71875 49.90625 C 64.71875 50.309845 65.033905 50.625 65.4375 50.625 C 65.841095 50.625 66.1875 50.309845 66.1875 49.90625 C 66.1875 49.502655 65.841095 49.15625 65.4375 49.15625 z M 67.5625 49.15625 C 67.158905 49.15625 66.84375 49.502655 66.84375 49.90625 C 66.84375 50.309845 67.158905 50.625 67.5625 50.625 C 67.966095 50.625 68.3125 50.309845 68.3125 49.90625 C 68.3125 49.502655 67.966095 49.15625 67.5625 49.15625 z M 69.71875 49.15625 C 69.315155 49.15625 68.96875 49.502655 68.96875 49.90625 C 68.96875 50.309845 69.315155 50.625 69.71875 50.625 C 70.122345 50.625 70.4375 50.309845 70.4375 49.90625 C 70.4375 49.502655 70.122345 49.15625 69.71875 49.15625 z M 71.84375 49.15625 C 71.440155 49.15625 71.09375 49.502655 71.09375 49.90625 C 71.09375 50.309845 71.440155 50.625 71.84375 50.625 C 72.247345 50.625 72.5625 50.309845 72.5625 49.90625 C 72.5625 49.502655 72.247345 49.15625 71.84375 49.15625 z M 73.96875 49.15625 C 73.565155 49.15625 73.21875 49.502655 73.21875 49.90625 C 73.21875 50.309845 73.565155 50.625 73.96875 50.625 C 74.372345 50.625 74.6875 50.309845 74.6875 49.90625 C 74.6875 49.502655 74.372345 49.15625 73.96875 49.15625 z M 76.09375 49.15625 C 75.690155 49.15625 75.34375 49.502655 75.34375 49.90625 C 75.34375 50.309845 75.690155 50.625 76.09375 50.625 C 76.497345 50.625 76.8125 50.309845 76.8125 49.90625 C 76.8125 49.502655 76.497345 49.15625 76.09375 49.15625 z M 78.21875 49.15625 C 77.815155 49.15625 77.46875 49.502655 77.46875 49.90625 C 77.46875 50.309845 77.815155 50.625 78.21875 50.625 C 78.622345 50.625 78.9375 50.309845 78.9375 49.90625 C 78.9375 49.502655 78.622345 49.15625 78.21875 49.15625 z M 16.5625 51.28125 C 16.158905 51.28125 15.8125 51.596405 15.8125 52 C 15.8125 52.403595 16.158905 52.75 16.5625 52.75 C 16.966095 52.75 17.28125 52.403595 17.28125 52 C 17.28125 51.596405 16.966095 51.28125 16.5625 51.28125 z M 18.6875 51.28125 C 18.283905 51.28125 17.9375 51.596405 17.9375 52 C 17.9375 52.403595 18.283905 52.75 18.6875 52.75 C 19.091095 52.75 19.40625 52.403595 19.40625 52 C 19.40625 51.596405 19.091095 51.28125 18.6875 51.28125 z M 42.0625 51.28125 C 41.658905 51.28125 41.34375 51.596405 41.34375 52 C 41.34375 52.403595 41.658905 52.75 42.0625 52.75 C 42.466095 52.75 42.78125 52.403595 42.78125 52 C 42.78125 51.596405 42.466095 51.28125 42.0625 51.28125 z M 44.1875 51.28125 C 43.783905 51.28125 43.46875 51.596405 43.46875 52 C 43.46875 52.403595 43.783905 52.75 44.1875 52.75 C 44.591095 52.75 44.90625 52.403595 44.90625 52 C 44.90625 51.596405 44.591095 51.28125 44.1875 51.28125 z M 46.3125 51.28125 C 45.908905 51.28125 45.59375 51.596405 45.59375 52 C 45.59375 52.403595 45.908905 52.75 46.3125 52.75 C 46.716095 52.75 47.03125 52.403595 47.03125 52 C 47.03125 51.596405 46.716095 51.28125 46.3125 51.28125 z M 48.4375 51.28125 C 48.033905 51.28125 47.71875 51.596405 47.71875 52 C 47.71875 52.403595 48.033905 52.75 48.4375 52.75 C 48.841095 52.75 49.1875 52.403595 49.1875 52 C 49.1875 51.596405 48.841095 51.28125 48.4375 51.28125 z M 50.5625 51.28125 C 50.158905 51.28125 49.84375 51.596405 49.84375 52 C 49.84375 52.403595 50.158905 52.75 50.5625 52.75 C 50.966095 52.75 51.3125 52.403595 51.3125 52 C 51.3125 51.596405 50.966095 51.28125 50.5625 51.28125 z M 52.6875 51.28125 C 52.283905 51.28125 51.96875 51.596405 51.96875 52 C 51.96875 52.403595 52.283905 52.75 52.6875 52.75 C 53.091095 52.75 53.4375 52.403595 53.4375 52 C 53.4375 51.596405 53.091095 51.28125 52.6875 51.28125 z M 54.8125 51.28125 C 54.408905 51.28125 54.09375 51.596405 54.09375 52 C 54.09375 52.403595 54.408905 52.75 54.8125 52.75 C 55.216095 52.75 55.5625 52.403595 55.5625 52 C 55.5625 51.596405 55.216095 51.28125 54.8125 51.28125 z M 59.0625 51.28125 C 58.658905 51.28125 58.34375 51.596405 58.34375 52 C 58.34375 52.403595 58.658905 52.75 59.0625 52.75 C 59.466095 52.75 59.8125 52.403595 59.8125 52 C 59.8125 51.596405 59.466095 51.28125 59.0625 51.28125 z M 61.1875 51.28125 C 60.783905 51.28125 60.46875 51.596405 60.46875 52 C 60.46875 52.403595 60.783905 52.75 61.1875 52.75 C 61.591095 52.75 61.9375 52.403595 61.9375 52 C 61.9375 51.596405 61.591095 51.28125 61.1875 51.28125 z M 63.3125 51.28125 C 62.908905 51.28125 62.59375 51.596405 62.59375 52 C 62.59375 52.403595 62.908905 52.75 63.3125 52.75 C 63.716095 52.75 64.0625 52.403595 64.0625 52 C 64.0625 51.596405 63.716095 51.28125 63.3125 51.28125 z M 67.5625 51.28125 C 67.158905 51.28125 66.84375 51.596405 66.84375 52 C 66.84375 52.403595 67.158905 52.75 67.5625 52.75 C 67.966095 52.75 68.3125 52.403595 68.3125 52 C 68.3125 51.596405 67.966095 51.28125 67.5625 51.28125 z M 69.71875 51.28125 C 69.315155 51.28125 68.96875 51.596405 68.96875 52 C 68.96875 52.403595 69.315155 52.75 69.71875 52.75 C 70.122345 52.75 70.4375 52.403595 70.4375 52 C 70.4375 51.596405 70.122345 51.28125 69.71875 51.28125 z M 71.84375 51.28125 C 71.440155 51.28125 71.09375 51.596405 71.09375 52 C 71.09375 52.403595 71.440155 52.75 71.84375 52.75 C 72.247345 52.75 72.5625 52.403595 72.5625 52 C 72.5625 51.596405 72.247345 51.28125 71.84375 51.28125 z M 73.96875 51.28125 C 73.565155 51.28125 73.21875 51.596405 73.21875 52 C 73.21875 52.403595 73.565155 52.75 73.96875 52.75 C 74.372345 52.75 74.6875 52.403595 74.6875 52 C 74.6875 51.596405 74.372345 51.28125 73.96875 51.28125 z M 76.09375 51.28125 C 75.690155 51.28125 75.34375 51.596405 75.34375 52 C 75.34375 52.403595 75.690155 52.75 76.09375 52.75 C 76.497345 52.75 76.8125 52.403595 76.8125 52 C 76.8125 51.596405 76.497345 51.28125 76.09375 51.28125 z M 78.21875 51.28125 C 77.815155 51.28125 77.46875 51.596405 77.46875 52 C 77.46875 52.403595 77.815155 52.75 78.21875 52.75 C 78.622345 52.75 78.9375 52.403595 78.9375 52 C 78.9375 51.596405 78.622345 51.28125 78.21875 51.28125 z M 20.8125 53.375 C 20.408905 53.375 20.0625 53.721405 20.0625 54.125 C 20.0625 54.528595 20.408905 54.84375 20.8125 54.84375 C 21.216095 54.84375 21.53125 54.528595 21.53125 54.125 C 21.53125 53.721405 21.216095 53.375 20.8125 53.375 z M 42.0625 53.375 C 41.658905 53.375 41.34375 53.721405 41.34375 54.125 C 41.34375 54.528595 41.658905 54.84375 42.0625 54.84375 C 42.466095 54.84375 42.78125 54.528595 42.78125 54.125 C 42.78125 53.721405 42.466095 53.375 42.0625 53.375 z M 44.1875 53.375 C 43.783905 53.375 43.46875 53.721405 43.46875 54.125 C 43.46875 54.528595 43.783905 54.84375 44.1875 54.84375 C 44.591095 54.84375 44.90625 54.528595 44.90625 54.125 C 44.90625 53.721405 44.591095 53.375 44.1875 53.375 z M 46.3125 53.375 C 45.908905 53.375 45.59375 53.721405 45.59375 54.125 C 45.59375 54.528595 45.908905 54.84375 46.3125 54.84375 C 46.716095 54.84375 47.03125 54.528595 47.03125 54.125 C 47.03125 53.721405 46.716095 53.375 46.3125 53.375 z M 48.4375 53.375 C 48.033905 53.375 47.71875 53.721405 47.71875 54.125 C 47.71875 54.528595 48.033905 54.84375 48.4375 54.84375 C 48.841095 54.84375 49.1875 54.528595 49.1875 54.125 C 49.1875 53.721405 48.841095 53.375 48.4375 53.375 z M 50.5625 53.375 C 50.158905 53.375 49.84375 53.721405 49.84375 54.125 C 49.84375 54.528595 50.158905 54.84375 50.5625 54.84375 C 50.966095 54.84375 51.3125 54.528595 51.3125 54.125 C 51.3125 53.721405 50.966095 53.375 50.5625 53.375 z M 52.6875 53.375 C 52.283905 53.375 51.96875 53.721405 51.96875 54.125 C 51.96875 54.528595 52.283905 54.84375 52.6875 54.84375 C 53.091095 54.84375 53.4375 54.528595 53.4375 54.125 C 53.4375 53.721405 53.091095 53.375 52.6875 53.375 z M 54.8125 53.375 C 54.408905 53.375 54.09375 53.721405 54.09375 54.125 C 54.09375 54.528595 54.408905 54.84375 54.8125 54.84375 C 55.216095 54.84375 55.5625 54.528595 55.5625 54.125 C 55.5625 53.721405 55.216095 53.375 54.8125 53.375 z M 56.9375 53.375 C 56.533905 53.375 56.21875 53.721405 56.21875 54.125 C 56.21875 54.528595 56.533905 54.84375 56.9375 54.84375 C 57.341095 54.84375 57.6875 54.528595 57.6875 54.125 C 57.6875 53.721405 57.341095 53.375 56.9375 53.375 z M 61.1875 53.375 C 60.783905 53.375 60.46875 53.721405 60.46875 54.125 C 60.46875 54.528595 60.783905 54.84375 61.1875 54.84375 C 61.591095 54.84375 61.9375 54.528595 61.9375 54.125 C 61.9375 53.721405 61.591095 53.375 61.1875 53.375 z M 67.5625 53.375 C 67.158905 53.375 66.84375 53.721405 66.84375 54.125 C 66.84375 54.528595 67.158905 54.84375 67.5625 54.84375 C 67.966095 54.84375 68.3125 54.528595 68.3125 54.125 C 68.3125 53.721405 67.966095 53.375 67.5625 53.375 z M 69.71875 53.375 C 69.315155 53.375 68.96875 53.721405 68.96875 54.125 C 68.96875 54.528595 69.315155 54.84375 69.71875 54.84375 C 70.122345 54.84375 70.4375 54.528595 70.4375 54.125 C 70.4375 53.721405 70.122345 53.375 69.71875 53.375 z M 71.84375 53.375 C 71.440155 53.375 71.09375 53.721405 71.09375 54.125 C 71.09375 54.528595 71.440155 54.84375 71.84375 54.84375 C 72.247345 54.84375 72.5625 54.528595 72.5625 54.125 C 72.5625 53.721405 72.247345 53.375 71.84375 53.375 z M 76.09375 53.375 C 75.690155 53.375 75.34375 53.721405 75.34375 54.125 C 75.34375 54.528595 75.690155 54.84375 76.09375 54.84375 C 76.497345 54.84375 76.8125 54.528595 76.8125 54.125 C 76.8125 53.721405 76.497345 53.375 76.09375 53.375 z M 78.21875 53.375 C 77.815155 53.375 77.46875 53.721405 77.46875 54.125 C 77.46875 54.528595 77.815155 54.84375 78.21875 54.84375 C 78.622345 54.84375 78.9375 54.528595 78.9375 54.125 C 78.9375 53.721405 78.622345 53.375 78.21875 53.375 z M 22.9375 55.5 C 22.533905 55.5 22.1875 55.815155 22.1875 56.21875 C 22.1875 56.622345 22.533905 56.96875 22.9375 56.96875 C 23.341095 56.96875 23.65625 56.622345 23.65625 56.21875 C 23.65625 55.815155 23.341095 55.5 22.9375 55.5 z M 25.0625 55.5 C 24.658905 55.5 24.3125 55.815155 24.3125 56.21875 C 24.3125 56.622345 24.658905 56.96875 25.0625 56.96875 C 25.466095 56.96875 25.78125 56.622345 25.78125 56.21875 C 25.78125 55.815155 25.466095 55.5 25.0625 55.5 z M 27.1875 55.5 C 26.783905 55.5 26.4375 55.815155 26.4375 56.21875 C 26.4375 56.622345 26.783905 56.96875 27.1875 56.96875 C 27.591095 56.96875 27.90625 56.622345 27.90625 56.21875 C 27.90625 55.815155 27.591095 55.5 27.1875 55.5 z M 29.3125 55.5 C 28.908905 55.5 28.5625 55.815155 28.5625 56.21875 C 28.5625 56.622345 28.908905 56.96875 29.3125 56.96875 C 29.716095 56.96875 30.03125 56.622345 30.03125 56.21875 C 30.03125 55.815155 29.716095 55.5 29.3125 55.5 z M 44.1875 55.5 C 43.783905 55.5 43.46875 55.815155 43.46875 56.21875 C 43.46875 56.622345 43.783905 56.96875 44.1875 56.96875 C 44.591095 56.96875 44.90625 56.622345 44.90625 56.21875 C 44.90625 55.815155 44.591095 55.5 44.1875 55.5 z M 46.3125 55.5 C 45.908905 55.5 45.59375 55.815155 45.59375 56.21875 C 45.59375 56.622345 45.908905 56.96875 46.3125 56.96875 C 46.716095 56.96875 47.03125 56.622345 47.03125 56.21875 C 47.03125 55.815155 46.716095 55.5 46.3125 55.5 z M 48.4375 55.5 C 48.033905 55.5 47.71875 55.815155 47.71875 56.21875 C 47.71875 56.622345 48.033905 56.96875 48.4375 56.96875 C 48.841095 56.96875 49.1875 56.622345 49.1875 56.21875 C 49.1875 55.815155 48.841095 55.5 48.4375 55.5 z M 50.5625 55.5 C 50.158905 55.5 49.84375 55.815155 49.84375 56.21875 C 49.84375 56.622345 50.158905 56.96875 50.5625 56.96875 C 50.966095 56.96875 51.3125 56.622345 51.3125 56.21875 C 51.3125 55.815155 50.966095 55.5 50.5625 55.5 z M 52.6875 55.5 C 52.283905 55.5 51.96875 55.815155 51.96875 56.21875 C 51.96875 56.622345 52.283905 56.96875 52.6875 56.96875 C 53.091095 56.96875 53.4375 56.622345 53.4375 56.21875 C 53.4375 55.815155 53.091095 55.5 52.6875 55.5 z M 54.8125 55.5 C 54.408905 55.5 54.09375 55.815155 54.09375 56.21875 C 54.09375 56.622345 54.408905 56.96875 54.8125 56.96875 C 55.216095 56.96875 55.5625 56.622345 55.5625 56.21875 C 55.5625 55.815155 55.216095 55.5 54.8125 55.5 z M 56.9375 55.5 C 56.533905 55.5 56.21875 55.815155 56.21875 56.21875 C 56.21875 56.622345 56.533905 56.96875 56.9375 56.96875 C 57.341095 56.96875 57.6875 56.622345 57.6875 56.21875 C 57.6875 55.815155 57.341095 55.5 56.9375 55.5 z M 59.0625 55.5 C 58.658905 55.5 58.34375 55.815155 58.34375 56.21875 C 58.34375 56.622345 58.658905 56.96875 59.0625 56.96875 C 59.466095 56.96875 59.8125 56.622345 59.8125 56.21875 C 59.8125 55.815155 59.466095 55.5 59.0625 55.5 z M 69.71875 55.5 C 69.315155 55.5 68.96875 55.815155 68.96875 56.21875 C 68.96875 56.622345 69.315155 56.96875 69.71875 56.96875 C 70.122345 56.96875 70.4375 56.622345 70.4375 56.21875 C 70.4375 55.815155 70.122345 55.5 69.71875 55.5 z M 76.09375 55.5 C 75.690155 55.5 75.34375 55.815155 75.34375 56.21875 C 75.34375 56.622345 75.690155 56.96875 76.09375 56.96875 C 76.497345 56.96875 76.8125 56.622345 76.8125 56.21875 C 76.8125 55.815155 76.497345 55.5 76.09375 55.5 z M 25.0625 57.625 C 24.658905 57.625 24.3125 57.940155 24.3125 58.34375 C 24.3125 58.747345 24.658905 59.0625 25.0625 59.0625 C 25.466095 59.0625 25.78125 58.747345 25.78125 58.34375 C 25.78125 57.940155 25.466095 57.625 25.0625 57.625 z M 27.1875 57.625 C 26.783905 57.625 26.4375 57.940155 26.4375 58.34375 C 26.4375 58.747345 26.783905 59.0625 27.1875 59.0625 C 27.591095 59.0625 27.90625 58.747345 27.90625 58.34375 C 27.90625 57.940155 27.591095 57.625 27.1875 57.625 z M 29.3125 57.625 C 28.908905 57.625 28.5625 57.940155 28.5625 58.34375 C 28.5625 58.747345 28.908905 59.0625 29.3125 59.0625 C 29.716095 59.0625 30.03125 58.747345 30.03125 58.34375 C 30.03125 57.940155 29.716095 57.625 29.3125 57.625 z M 31.4375 57.625 C 31.033905 57.625 30.6875 57.940155 30.6875 58.34375 C 30.6875 58.747345 31.033905 59.0625 31.4375 59.0625 C 31.841095 59.0625 32.15625 58.747345 32.15625 58.34375 C 32.15625 57.940155 31.841095 57.625 31.4375 57.625 z M 50.5625 57.625 C 50.158905 57.625 49.84375 57.940155 49.84375 58.34375 C 49.84375 58.747345 50.158905 59.0625 50.5625 59.0625 C 50.966095 59.0625 51.3125 58.747345 51.3125 58.34375 C 51.3125 57.940155 50.966095 57.625 50.5625 57.625 z M 52.6875 57.625 C 52.283905 57.625 51.96875 57.940155 51.96875 58.34375 C 51.96875 58.747345 52.283905 59.0625 52.6875 59.0625 C 53.091095 59.0625 53.4375 58.747345 53.4375 58.34375 C 53.4375 57.940155 53.091095 57.625 52.6875 57.625 z M 54.8125 57.625 C 54.408905 57.625 54.09375 57.940155 54.09375 58.34375 C 54.09375 58.747345 54.408905 59.0625 54.8125 59.0625 C 55.216095 59.0625 55.5625 58.747345 55.5625 58.34375 C 55.5625 57.940155 55.216095 57.625 54.8125 57.625 z M 56.9375 57.625 C 56.533905 57.625 56.21875 57.940155 56.21875 58.34375 C 56.21875 58.747345 56.533905 59.0625 56.9375 59.0625 C 57.341095 59.0625 57.6875 58.747345 57.6875 58.34375 C 57.6875 57.940155 57.341095 57.625 56.9375 57.625 z M 59.0625 57.625 C 58.658905 57.625 58.34375 57.940155 58.34375 58.34375 C 58.34375 58.747345 58.658905 59.0625 59.0625 59.0625 C 59.466095 59.0625 59.8125 58.747345 59.8125 58.34375 C 59.8125 57.940155 59.466095 57.625 59.0625 57.625 z M 76.09375 57.625 C 75.690155 57.625 75.34375 57.940155 75.34375 58.34375 C 75.34375 58.747345 75.690155 59.0625 76.09375 59.0625 C 76.497345 59.0625 76.8125 58.747345 76.8125 58.34375 C 76.8125 57.940155 76.497345 57.625 76.09375 57.625 z M 22.9375 59.71875 C 22.533905 59.71875 22.1875 60.065155 22.1875 60.46875 C 22.1875 60.872345 22.533905 61.1875 22.9375 61.1875 C 23.341095 61.1875 23.65625 60.872345 23.65625 60.46875 C 23.65625 60.065155 23.341095 59.71875 22.9375 59.71875 z M 25.0625 59.71875 C 24.658905 59.71875 24.3125 60.065155 24.3125 60.46875 C 24.3125 60.872345 24.658905 61.1875 25.0625 61.1875 C 25.466095 61.1875 25.78125 60.872345 25.78125 60.46875 C 25.78125 60.065155 25.466095 59.71875 25.0625 59.71875 z M 27.1875 59.71875 C 26.783905 59.71875 26.4375 60.065155 26.4375 60.46875 C 26.4375 60.872345 26.783905 61.1875 27.1875 61.1875 C 27.591095 61.1875 27.90625 60.872345 27.90625 60.46875 C 27.90625 60.065155 27.591095 59.71875 27.1875 59.71875 z M 29.3125 59.71875 C 28.908905 59.71875 28.5625 60.065155 28.5625 60.46875 C 28.5625 60.872345 28.908905 61.1875 29.3125 61.1875 C 29.716095 61.1875 30.03125 60.872345 30.03125 60.46875 C 30.03125 60.065155 29.716095 59.71875 29.3125 59.71875 z M 31.4375 59.71875 C 31.033905 59.71875 30.6875 60.065155 30.6875 60.46875 C 30.6875 60.872345 31.033905 61.1875 31.4375 61.1875 C 31.841095 61.1875 32.15625 60.872345 32.15625 60.46875 C 32.15625 60.065155 31.841095 59.71875 31.4375 59.71875 z M 33.5625 59.71875 C 33.158905 59.71875 32.8125 60.065155 32.8125 60.46875 C 32.8125 60.872345 33.158905 61.1875 33.5625 61.1875 C 33.966095 61.1875 34.28125 60.872345 34.28125 60.46875 C 34.28125 60.065155 33.966095 59.71875 33.5625 59.71875 z M 35.6875 59.71875 C 35.283905 59.71875 34.96875 60.065155 34.96875 60.46875 C 34.96875 60.872345 35.283905 61.1875 35.6875 61.1875 C 36.091095 61.1875 36.40625 60.872345 36.40625 60.46875 C 36.40625 60.065155 36.091095 59.71875 35.6875 59.71875 z M 50.5625 59.71875 C 50.158905 59.71875 49.84375 60.065155 49.84375 60.46875 C 49.84375 60.872345 50.158905 61.1875 50.5625 61.1875 C 50.966095 61.1875 51.3125 60.872345 51.3125 60.46875 C 51.3125 60.065155 50.966095 59.71875 50.5625 59.71875 z M 52.6875 59.71875 C 52.283905 59.71875 51.96875 60.065155 51.96875 60.46875 C 51.96875 60.872345 52.283905 61.1875 52.6875 61.1875 C 53.091095 61.1875 53.4375 60.872345 53.4375 60.46875 C 53.4375 60.065155 53.091095 59.71875 52.6875 59.71875 z M 54.8125 59.71875 C 54.408905 59.71875 54.09375 60.065155 54.09375 60.46875 C 54.09375 60.872345 54.408905 61.1875 54.8125 61.1875 C 55.216095 61.1875 55.5625 60.872345 55.5625 60.46875 C 55.5625 60.065155 55.216095 59.71875 54.8125 59.71875 z M 56.9375 59.71875 C 56.533905 59.71875 56.21875 60.065155 56.21875 60.46875 C 56.21875 60.872345 56.533905 61.1875 56.9375 61.1875 C 57.341095 61.1875 57.6875 60.872345 57.6875 60.46875 C 57.6875 60.065155 57.341095 59.71875 56.9375 59.71875 z M 78.21875 59.71875 C 77.815155 59.71875 77.46875 60.065155 77.46875 60.46875 C 77.46875 60.872345 77.815155 61.1875 78.21875 61.1875 C 78.622345 61.1875 78.9375 60.872345 78.9375 60.46875 C 78.9375 60.065155 78.622345 59.71875 78.21875 59.71875 z M 84.59375 59.71875 C 84.190155 59.71875 83.84375 60.065155 83.84375 60.46875 C 83.84375 60.872345 84.190155 61.1875 84.59375 61.1875 C 84.997345 61.1875 85.3125 60.872345 85.3125 60.46875 C 85.3125 60.065155 84.997345 59.71875 84.59375 59.71875 z M 25.0625 61.84375 C 24.658905 61.84375 24.3125 62.158905 24.3125 62.5625 C 24.3125 62.966095 24.658905 63.3125 25.0625 63.3125 C 25.466095 63.3125 25.78125 62.966095 25.78125 62.5625 C 25.78125 62.158905 25.466095 61.84375 25.0625 61.84375 z M 27.1875 61.84375 C 26.783905 61.84375 26.4375 62.158905 26.4375 62.5625 C 26.4375 62.966095 26.783905 63.3125 27.1875 63.3125 C 27.591095 63.3125 27.90625 62.966095 27.90625 62.5625 C 27.90625 62.158905 27.591095 61.84375 27.1875 61.84375 z M 29.3125 61.84375 C 28.908905 61.84375 28.5625 62.158905 28.5625 62.5625 C 28.5625 62.966095 28.908905 63.3125 29.3125 63.3125 C 29.716095 63.3125 30.03125 62.966095 30.03125 62.5625 C 30.03125 62.158905 29.716095 61.84375 29.3125 61.84375 z M 31.4375 61.84375 C 31.033905 61.84375 30.6875 62.158905 30.6875 62.5625 C 30.6875 62.966095 31.033905 63.3125 31.4375 63.3125 C 31.841095 63.3125 32.15625 62.966095 32.15625 62.5625 C 32.15625 62.158905 31.841095 61.84375 31.4375 61.84375 z M 33.5625 61.84375 C 33.158905 61.84375 32.8125 62.158905 32.8125 62.5625 C 32.8125 62.966095 33.158905 63.3125 33.5625 63.3125 C 33.966095 63.3125 34.28125 62.966095 34.28125 62.5625 C 34.28125 62.158905 33.966095 61.84375 33.5625 61.84375 z M 35.6875 61.84375 C 35.283905 61.84375 34.96875 62.158905 34.96875 62.5625 C 34.96875 62.966095 35.283905 63.3125 35.6875 63.3125 C 36.091095 63.3125 36.40625 62.966095 36.40625 62.5625 C 36.40625 62.158905 36.091095 61.84375 35.6875 61.84375 z M 50.5625 61.84375 C 50.158905 61.84375 49.84375 62.158905 49.84375 62.5625 C 49.84375 62.966095 50.158905 63.3125 50.5625 63.3125 C 50.966095 63.3125 51.3125 62.966095 51.3125 62.5625 C 51.3125 62.158905 50.966095 61.84375 50.5625 61.84375 z M 52.6875 61.84375 C 52.283905 61.84375 51.96875 62.158905 51.96875 62.5625 C 51.96875 62.966095 52.283905 63.3125 52.6875 63.3125 C 53.091095 63.3125 53.4375 62.966095 53.4375 62.5625 C 53.4375 62.158905 53.091095 61.84375 52.6875 61.84375 z M 54.8125 61.84375 C 54.408905 61.84375 54.09375 62.158905 54.09375 62.5625 C 54.09375 62.966095 54.408905 63.3125 54.8125 63.3125 C 55.216095 63.3125 55.5625 62.966095 55.5625 62.5625 C 55.5625 62.158905 55.216095 61.84375 54.8125 61.84375 z M 56.9375 61.84375 C 56.533905 61.84375 56.21875 62.158905 56.21875 62.5625 C 56.21875 62.966095 56.533905 63.3125 56.9375 63.3125 C 57.341095 63.3125 57.6875 62.966095 57.6875 62.5625 C 57.6875 62.158905 57.341095 61.84375 56.9375 61.84375 z M 80.34375 61.84375 C 79.940155 61.84375 79.59375 62.158905 79.59375 62.5625 C 79.59375 62.966095 79.940155 63.3125 80.34375 63.3125 C 80.747345 63.3125 81.0625 62.966095 81.0625 62.5625 C 81.0625 62.158905 80.747345 61.84375 80.34375 61.84375 z M 27.1875 63.9375 C 26.783905 63.9375 26.4375 64.283905 26.4375 64.6875 C 26.4375 65.091095 26.783905 65.40625 27.1875 65.40625 C 27.591095 65.40625 27.90625 65.091095 27.90625 64.6875 C 27.90625 64.283905 27.591095 63.9375 27.1875 63.9375 z M 29.3125 63.9375 C 28.908905 63.9375 28.5625 64.283905 28.5625 64.6875 C 28.5625 65.091095 28.908905 65.40625 29.3125 65.40625 C 29.716095 65.40625 30.03125 65.091095 30.03125 64.6875 C 30.03125 64.283905 29.716095 63.9375 29.3125 63.9375 z M 31.4375 63.9375 C 31.033905 63.9375 30.6875 64.283905 30.6875 64.6875 C 30.6875 65.091095 31.033905 65.40625 31.4375 65.40625 C 31.841095 65.40625 32.15625 65.091095 32.15625 64.6875 C 32.15625 64.283905 31.841095 63.9375 31.4375 63.9375 z M 33.5625 63.9375 C 33.158905 63.9375 32.8125 64.283905 32.8125 64.6875 C 32.8125 65.091095 33.158905 65.40625 33.5625 65.40625 C 33.966095 65.40625 34.28125 65.091095 34.28125 64.6875 C 34.28125 64.283905 33.966095 63.9375 33.5625 63.9375 z M 35.6875 63.9375 C 35.283905 63.9375 34.96875 64.283905 34.96875 64.6875 C 34.96875 65.091095 35.283905 65.40625 35.6875 65.40625 C 36.091095 65.40625 36.40625 65.091095 36.40625 64.6875 C 36.40625 64.283905 36.091095 63.9375 35.6875 63.9375 z M 50.5625 63.9375 C 50.158905 63.9375 49.84375 64.283905 49.84375 64.6875 C 49.84375 65.091095 50.158905 65.40625 50.5625 65.40625 C 50.966095 65.40625 51.3125 65.091095 51.3125 64.6875 C 51.3125 64.283905 50.966095 63.9375 50.5625 63.9375 z M 52.6875 63.9375 C 52.283905 63.9375 51.96875 64.283905 51.96875 64.6875 C 51.96875 65.091095 52.283905 65.40625 52.6875 65.40625 C 53.091095 65.40625 53.4375 65.091095 53.4375 64.6875 C 53.4375 64.283905 53.091095 63.9375 52.6875 63.9375 z M 54.8125 63.9375 C 54.408905 63.9375 54.09375 64.283905 54.09375 64.6875 C 54.09375 65.091095 54.408905 65.40625 54.8125 65.40625 C 55.216095 65.40625 55.5625 65.091095 55.5625 64.6875 C 55.5625 64.283905 55.216095 63.9375 54.8125 63.9375 z M 56.9375 63.9375 C 56.533905 63.9375 56.21875 64.283905 56.21875 64.6875 C 56.21875 65.091095 56.533905 65.40625 56.9375 65.40625 C 57.341095 65.40625 57.6875 65.091095 57.6875 64.6875 C 57.6875 64.283905 57.341095 63.9375 56.9375 63.9375 z M 61.1875 63.9375 C 60.783905 63.9375 60.46875 64.283905 60.46875 64.6875 C 60.46875 65.091095 60.783905 65.40625 61.1875 65.40625 C 61.591095 65.40625 61.9375 65.091095 61.9375 64.6875 C 61.9375 64.283905 61.591095 63.9375 61.1875 63.9375 z M 76.09375 63.9375 C 75.690155 63.9375 75.34375 64.283905 75.34375 64.6875 C 75.34375 65.091095 75.690155 65.40625 76.09375 65.40625 C 76.497345 65.40625 76.8125 65.091095 76.8125 64.6875 C 76.8125 64.283905 76.497345 63.9375 76.09375 63.9375 z M 78.21875 63.9375 C 77.815155 63.9375 77.46875 64.283905 77.46875 64.6875 C 77.46875 65.091095 77.815155 65.40625 78.21875 65.40625 C 78.622345 65.40625 78.9375 65.091095 78.9375 64.6875 C 78.9375 64.283905 78.622345 63.9375 78.21875 63.9375 z M 80.34375 63.9375 C 79.940155 63.9375 79.59375 64.283905 79.59375 64.6875 C 79.59375 65.091095 79.940155 65.40625 80.34375 65.40625 C 80.747345 65.40625 81.0625 65.091095 81.0625 64.6875 C 81.0625 64.283905 80.747345 63.9375 80.34375 63.9375 z M 82.46875 63.9375 C 82.065155 63.9375 81.71875 64.283905 81.71875 64.6875 C 81.71875 65.091095 82.065155 65.40625 82.46875 65.40625 C 82.872345 65.40625 83.1875 65.091095 83.1875 64.6875 C 83.1875 64.283905 82.872345 63.9375 82.46875 63.9375 z M 84.59375 63.9375 C 84.190155 63.9375 83.84375 64.283905 83.84375 64.6875 C 83.84375 65.091095 84.190155 65.40625 84.59375 65.40625 C 84.997345 65.40625 85.3125 65.091095 85.3125 64.6875 C 85.3125 64.283905 84.997345 63.9375 84.59375 63.9375 z M 27.1875 66.0625 C 26.783905 66.0625 26.4375 66.377655 26.4375 66.78125 C 26.4375 67.184845 26.783905 67.53125 27.1875 67.53125 C 27.591095 67.53125 27.90625 67.184845 27.90625 66.78125 C 27.90625 66.377655 27.591095 66.0625 27.1875 66.0625 z M 29.3125 66.0625 C 28.908905 66.0625 28.5625 66.377655 28.5625 66.78125 C 28.5625 67.184845 28.908905 67.53125 29.3125 67.53125 C 29.716095 67.53125 30.03125 67.184845 30.03125 66.78125 C 30.03125 66.377655 29.716095 66.0625 29.3125 66.0625 z M 31.4375 66.0625 C 31.033905 66.0625 30.6875 66.377655 30.6875 66.78125 C 30.6875 67.184845 31.033905 67.53125 31.4375 67.53125 C 31.841095 67.53125 32.15625 67.184845 32.15625 66.78125 C 32.15625 66.377655 31.841095 66.0625 31.4375 66.0625 z M 33.5625 66.0625 C 33.158905 66.0625 32.8125 66.377655 32.8125 66.78125 C 32.8125 67.184845 33.158905 67.53125 33.5625 67.53125 C 33.966095 67.53125 34.28125 67.184845 34.28125 66.78125 C 34.28125 66.377655 33.966095 66.0625 33.5625 66.0625 z M 52.6875 66.0625 C 52.283905 66.0625 51.96875 66.377655 51.96875 66.78125 C 51.96875 67.184845 52.283905 67.53125 52.6875 67.53125 C 53.091095 67.53125 53.4375 67.184845 53.4375 66.78125 C 53.4375 66.377655 53.091095 66.0625 52.6875 66.0625 z M 54.8125 66.0625 C 54.408905 66.0625 54.09375 66.377655 54.09375 66.78125 C 54.09375 67.184845 54.408905 67.53125 54.8125 67.53125 C 55.216095 67.53125 55.5625 67.184845 55.5625 66.78125 C 55.5625 66.377655 55.216095 66.0625 54.8125 66.0625 z M 59.0625 66.0625 C 58.658905 66.0625 58.34375 66.377655 58.34375 66.78125 C 58.34375 67.184845 58.658905 67.53125 59.0625 67.53125 C 59.466095 67.53125 59.8125 67.184845 59.8125 66.78125 C 59.8125 66.377655 59.466095 66.0625 59.0625 66.0625 z M 76.09375 66.0625 C 75.690155 66.0625 75.34375 66.377655 75.34375 66.78125 C 75.34375 67.184845 75.690155 67.53125 76.09375 67.53125 C 76.497345 67.53125 76.8125 67.184845 76.8125 66.78125 C 76.8125 66.377655 76.497345 66.0625 76.09375 66.0625 z M 78.21875 66.0625 C 77.815155 66.0625 77.46875 66.377655 77.46875 66.78125 C 77.46875 67.184845 77.815155 67.53125 78.21875 67.53125 C 78.622345 67.53125 78.9375 67.184845 78.9375 66.78125 C 78.9375 66.377655 78.622345 66.0625 78.21875 66.0625 z M 80.34375 66.0625 C 79.940155 66.0625 79.59375 66.377655 79.59375 66.78125 C 79.59375 67.184845 79.940155 67.53125 80.34375 67.53125 C 80.747345 67.53125 81.0625 67.184845 81.0625 66.78125 C 81.0625 66.377655 80.747345 66.0625 80.34375 66.0625 z M 82.46875 66.0625 C 82.065155 66.0625 81.71875 66.377655 81.71875 66.78125 C 81.71875 67.184845 82.065155 67.53125 82.46875 67.53125 C 82.872345 67.53125 83.1875 67.184845 83.1875 66.78125 C 83.1875 66.377655 82.872345 66.0625 82.46875 66.0625 z M 84.59375 66.0625 C 84.190155 66.0625 83.84375 66.377655 83.84375 66.78125 C 83.84375 67.184845 84.190155 67.53125 84.59375 67.53125 C 84.997345 67.53125 85.3125 67.184845 85.3125 66.78125 C 85.3125 66.377655 84.997345 66.0625 84.59375 66.0625 z M 27.1875 68.1875 C 26.783905 68.1875 26.4375 68.502655 26.4375 68.90625 C 26.4375 69.309845 26.783905 69.625 27.1875 69.625 C 27.591095 69.625 27.90625 69.309845 27.90625 68.90625 C 27.90625 68.502655 27.591095 68.1875 27.1875 68.1875 z M 29.3125 68.1875 C 28.908905 68.1875 28.5625 68.502655 28.5625 68.90625 C 28.5625 69.309845 28.908905 69.625 29.3125 69.625 C 29.716095 69.625 30.03125 69.309845 30.03125 68.90625 C 30.03125 68.502655 29.716095 68.1875 29.3125 68.1875 z M 31.4375 68.1875 C 31.033905 68.1875 30.6875 68.502655 30.6875 68.90625 C 30.6875 69.309845 31.033905 69.625 31.4375 69.625 C 31.841095 69.625 32.15625 69.309845 32.15625 68.90625 C 32.15625 68.502655 31.841095 68.1875 31.4375 68.1875 z M 52.6875 68.1875 C 52.283905 68.1875 51.96875 68.502655 51.96875 68.90625 C 51.96875 69.309845 52.283905 69.625 52.6875 69.625 C 53.091095 69.625 53.4375 69.309845 53.4375 68.90625 C 53.4375 68.502655 53.091095 68.1875 52.6875 68.1875 z M 54.8125 68.1875 C 54.408905 68.1875 54.09375 68.502655 54.09375 68.90625 C 54.09375 69.309845 54.408905 69.625 54.8125 69.625 C 55.216095 69.625 55.5625 69.309845 55.5625 68.90625 C 55.5625 68.502655 55.216095 68.1875 54.8125 68.1875 z M 76.09375 68.1875 C 75.690155 68.1875 75.34375 68.502655 75.34375 68.90625 C 75.34375 69.309845 75.690155 69.625 76.09375 69.625 C 76.497345 69.625 76.8125 69.309845 76.8125 68.90625 C 76.8125 68.502655 76.497345 68.1875 76.09375 68.1875 z M 78.21875 68.1875 C 77.815155 68.1875 77.46875 68.502655 77.46875 68.90625 C 77.46875 69.309845 77.815155 69.625 78.21875 69.625 C 78.622345 69.625 78.9375 69.309845 78.9375 68.90625 C 78.9375 68.502655 78.622345 68.1875 78.21875 68.1875 z M 80.34375 68.1875 C 79.940155 68.1875 79.59375 68.502655 79.59375 68.90625 C 79.59375 69.309845 79.940155 69.625 80.34375 69.625 C 80.747345 69.625 81.0625 69.309845 81.0625 68.90625 C 81.0625 68.502655 80.747345 68.1875 80.34375 68.1875 z M 82.46875 68.1875 C 82.065155 68.1875 81.71875 68.502655 81.71875 68.90625 C 81.71875 69.309845 82.065155 69.625 82.46875 69.625 C 82.872345 69.625 83.1875 69.309845 83.1875 68.90625 C 83.1875 68.502655 82.872345 68.1875 82.46875 68.1875 z M 84.59375 68.1875 C 84.190155 68.1875 83.84375 68.502655 83.84375 68.90625 C 83.84375 69.309845 84.190155 69.625 84.59375 69.625 C 84.997345 69.625 85.3125 69.309845 85.3125 68.90625 C 85.3125 68.502655 84.997345 68.1875 84.59375 68.1875 z M 27.1875 70.28125 C 26.783905 70.28125 26.4375 70.627655 26.4375 71.03125 C 26.4375 71.434845 26.783905 71.75 27.1875 71.75 C 27.591095 71.75 27.90625 71.434845 27.90625 71.03125 C 27.90625 70.627655 27.591095 70.28125 27.1875 70.28125 z M 29.3125 70.28125 C 28.908905 70.28125 28.5625 70.627655 28.5625 71.03125 C 28.5625 71.434845 28.908905 71.75 29.3125 71.75 C 29.716095 71.75 30.03125 71.434845 30.03125 71.03125 C 30.03125 70.627655 29.716095 70.28125 29.3125 70.28125 z M 84.59375 70.28125 C 84.190155 70.28125 83.84375 70.627655 83.84375 71.03125 C 83.84375 71.434845 84.190155 71.75 84.59375 71.75 C 84.997345 71.75 85.3125 71.434845 85.3125 71.03125 C 85.3125 70.627655 84.997345 70.28125 84.59375 70.28125 z M 29.3125 72.40625 C 28.908905 72.40625 28.5625 72.721405 28.5625 73.125 C 28.5625 73.528595 28.908905 73.875 29.3125 73.875 C 29.716095 73.875 30.03125 73.528595 30.03125 73.125 C 30.03125 72.721405 29.716095 72.40625 29.3125 72.40625 z " transform="translate(0,952.36218)" fill="#000000" fill-opacity="1" fill-rule="evenodd" stroke="none"></path></g></svg>